<svg viewBox="0 0 1600 1400" xmlns="http://www.w3.org/2000/svg"><path d="m749.37 1277.76h-149.77a205.5 205.5 0 0 1 -31.68-15.69c-14.57-9.06-28-21.11-24.82-33.57 2.58-10.07 12.5-9.76 22.33-6.6 10.87 3.52 21.62 10.54 22.15 10.88-.38-.39-8.08-8.35-18.63-20.88-28.26-33.56-77-100-60.35-141.9 10.67-26.9 50.5-14.7 96.06 20.3 19.16 14.71 39.32 33.45 58.76 55 34 37.7 65.75 84.02 85.95 132.46z" fill="#88c0c2"/><path d="m663.42 1145.31c-.17 19.88-7.27 40.19-30.47 52.57-34.48 18.39-32 57-26.82 79.88h-6.53a205.5 205.5 0 0 1 -31.68-15.69c-3.67-11.44-6.06-25.83-2.49-40.17 10.87 3.52 21.62 10.54 22.15 10.88-.38-.39-8.08-8.35-18.63-20.88 3.85-8.26 10.09-16.25 19.65-23.4 34.59-25.86 25-72.47 16.06-98.2 19.16 14.7 39.34 33.45 58.76 55.01z" fill="#de9244"/><path d="m652 1213.6c-33.08 23.68-24.1 77.6 8.73 44.38s22.27-66.61-8.73-44.38z" fill="#de9244"/><path d="m711.91 1277.76h-7.48c-6.78-7.51-18.06-20-31.51-35-7.45-8.32-15.56-17.4-23.94-26.8-5.27-5.92-10.65-12-16-18-9.07-10.25-18.15-20.55-26.76-30.39-39.25-44.9-68.6-80.21-42.26-56.52 13.7 12.32 29.69 28.76 46.08 46.65 10.39 11.33 21 23.24 31.18 35 5.25 6 10.4 12.06 15.41 18 7.19 8.47 14.08 16.69 20.47 24.38 15.35 18.45 27.85 33.92 34.81 42.68z" fill="#fff"/><path d="m862.08 1245.23a401.53 401.53 0 0 1 -30.42 29.88c-2 1.71-3.06 2.65-3.06 2.65h-79.23c7.93-26 21.68-49.45 37.76-68.64a200.93 200.93 0 0 1 22.52-23c33.65-29.11 70.16-39.65 84.45-19.6s-9.26 53.7-32.02 78.71z" fill="#88c0c2"/><path d="m862.08 1245.23a401.53 401.53 0 0 1 -30.42 29.88c1.95-12.59-2.11-26.32-21.59-36.53-14.72-7.72-21.11-18.4-22.94-29.46a200.93 200.93 0 0 1 22.52-23c-2.77 12.21-.51 24.31 16.9 28 21.91 4.65 31.45 19.29 35.53 31.11z" fill="#de9244"/><path d="m791.47 1277.76h-11.36c15.79-21.36 62.63-83.46 83.49-97.15 12.69-8.33-51.96 72.2-72.13 97.15z" fill="#fff"/><path d="m426.52 215.75 31 146c1.61 7.59-3.24 13.75-10.83 13.75h-175.45c-7.59 0-15.06-6.16-16.67-13.75l-31-146c-1.61-7.59 3.24-13.75 10.83-13.75h175.5c7.54 0 15.01 6.16 16.62 13.75z" fill="#fff"/><path d="m446.74 378.27h-175.5c-9 0-17.49-7-19.39-15.95l-31-146a14.22 14.22 0 0 1 2.61-12.15 13.72 13.72 0 0 1 10.94-5h175.5c9 0 17.49 7 19.39 15.95l31 146a14.22 14.22 0 0 1 -2.61 12.15 13.72 13.72 0 0 1 -10.94 5zm-212.39-173.5a8.28 8.28 0 0 0 -6.62 2.89 8.78 8.78 0 0 0 -1.49 7.5l31 146c1.33 6.26 7.72 11.55 14 11.55h175.5a8.28 8.28 0 0 0 6.62-2.89 8.78 8.78 0 0 0 1.49-7.5l-31-146c-1.33-6.26-7.72-11.55-14-11.55z" fill="#262424"/><path d="m426.52 215.75 2.92 13.75h-203l-2.92-13.75c-1.61-7.59 3.24-13.75 10.83-13.75h175.5c7.59 0 15.06 6.16 16.67 13.75z" fill="#de9244"/><path d="m429.45 232.27h-203a2.78 2.78 0 0 1 -2.72-2.2l-2.92-13.75a14.22 14.22 0 0 1 2.61-12.15 13.72 13.72 0 0 1 10.94-5h175.5c9 0 17.49 7 19.39 15.95l2.92 13.75a2.78 2.78 0 0 1 -2.72 3.4zm-200.75-5.55h197.3l-2.21-10.4c-1.33-6.26-7.72-11.55-14-11.55h-175.44a8.28 8.28 0 0 0 -6.62 2.89 8.78 8.78 0 0 0 -1.49 7.5z" fill="#de9244"/><path d="m409.15 360.77 2.55 12h-106.58l-2.55-12c-2.41-11.32 2.43-21.47 12.16-25.5l32.82-13.6 38.6 13.6c11.43 4.03 20.59 14.18 23 25.5z" fill="#88c0c2"/><path d="m327.21 375.52a2.78 2.78 0 0 1 -2.71-2.2l-2.62-12.32a2.78 2.78 0 0 1 5.43-1.16l2.62 12.3a2.78 2.78 0 0 1 -2.14 3.29 2.82 2.82 0 0 1 -.58.09z" fill="#262424"/><path d="m368.51 335.19c2.63 12.35-11.1 13.3-11.1 13.3s-2.08-10.65-6.42-10.65-1.89 10.65-1.89 10.65-14.13-.95-16.76-13.3c-2-9.63 3-14.69 3-14.69h23.91a25.7 25.7 0 0 1 9.26 14.69z" fill="#fff"/><path d="m357.4 351.27a2.78 2.78 0 0 1 -2.72-2.24c-.73-3.71-2.31-7.21-3.35-8.17a19.89 19.89 0 0 0 .47 7 2.78 2.78 0 0 1 -2.89 3.39c-5.61-.38-16.87-4.1-19.29-15.49-2.33-11 3.51-17 3.76-17.23a2.78 2.78 0 0 1 2-.81h23.91a2.78 2.78 0 0 1 1.6.5 28.43 28.43 0 0 1 10.37 16.38c.91 4.28.26 7.93-1.94 10.84-3.93 5.21-11.37 5.78-11.69 5.8h-.23zm-6.4-16.2c4.85 0 7.37 6.15 8.51 10.23a9.85 9.85 0 0 0 5.37-3.2c1.19-1.59 1.49-3.66.93-6.33a23.05 23.05 0 0 0 -7.5-12.49h-21.63c-1 1.56-2.9 5.36-1.63 11.33 1.42 6.66 6.94 9.35 10.68 10.42-.26-2.78-.14-6.15 1.44-8.14a4.78 4.78 0 0 1 3.83-1.82z" fill="#262424"/><path d="m358.47 328s-.36 5-8.51 5-10.65-5-10.65-5l-.42-9.36h16z" fill="#fff"/><path d="m350 335.79c-9.76 0-13-6.29-13.13-6.56a2.77 2.77 0 0 1 -.29-1.11l-.42-9.36a2.78 2.78 0 0 1 2.77-2.9h16a2.78 2.78 0 0 1 2.59 1.79l3.56 9.35a2.77 2.77 0 0 1 .17 1.19c-.25 2.63-2.8 7.6-11.25 7.6zm-8-8.67c.7.9 2.92 3.11 7.91 3.11 4 0 5.22-1.35 5.6-2.1l-2.51-6.71h-11.2z" fill="#262424"/><path d="m389.6 375.52a2.78 2.78 0 0 1 -2.71-2.2l-2.62-12.32a2.78 2.78 0 0 1 5.43-1.16l2.62 12.3a2.78 2.78 0 0 1 -2.14 3.29 2.82 2.82 0 0 1 -.58.09z" fill="#262424"/><path d="m316.52 301.53h-1.39a7 7 0 0 1 -6.52-5.37l-1.2-5.62a4.22 4.22 0 0 1 4.23-5.37h1.36a7 7 0 0 1 6.52 5.37l1.2 5.62a4.22 4.22 0 0 1 -4.2 5.37z" fill="#fff"/><path d="m316.52 304.31h-1.39a9.78 9.78 0 0 1 -9.23-7.57l-1.2-5.62a7.31 7.31 0 0 1 1.36-6.17 7.12 7.12 0 0 1 5.59-2.56h1.35a9.79 9.79 0 0 1 9.23 7.57l1.19 5.62a7.31 7.31 0 0 1 -1.36 6.17 7.12 7.12 0 0 1 -5.54 2.56zm-4.87-16.37a1.61 1.61 0 0 0 -1.27.5 1.79 1.79 0 0 0 -.24 1.52l1.2 5.62a4.23 4.23 0 0 0 3.8 3.18h1.39a1.61 1.61 0 0 0 1.27-.5 1.79 1.79 0 0 0 .24-1.52l-1.19-5.62a4.23 4.23 0 0 0 -3.8-3.18h-1.39z" fill="#262424"/><path d="m370.72 301.53h-1.39a7 7 0 0 1 -6.52-5.37l-1.2-5.62a4.22 4.22 0 0 1 4.23-5.37h1.39a7 7 0 0 1 6.52 5.37l1.2 5.62a4.22 4.22 0 0 1 -4.23 5.37z" fill="#fff"/><path d="m370.72 304.31h-1.39a9.79 9.79 0 0 1 -9.23-7.57l-1.19-5.62a7.31 7.31 0 0 1 1.36-6.17 7.12 7.12 0 0 1 5.59-2.56h1.39a9.79 9.79 0 0 1 9.23 7.57l1.19 5.62a7.31 7.31 0 0 1 -1.36 6.17 7.12 7.12 0 0 1 -5.59 2.56zm-4.87-16.37a1.61 1.61 0 0 0 -1.27.5 1.79 1.79 0 0 0 -.24 1.52l1.19 5.62a4.23 4.23 0 0 0 3.8 3.18h1.39a1.61 1.61 0 0 0 1.27-.5 1.79 1.79 0 0 0 .24-1.52l-1.23-5.62a4.23 4.23 0 0 0 -3.8-3.18h-1.39z" fill="#262424"/><path d="m350.39 323.74h-5.48c-11.74 0-23.27-9.51-25.77-21.25l-4.49-21.1c-2.5-11.74 5-21.25 16.73-21.25h5.48c11.74 0 23.27 9.51 25.77 21.25l4.49 21.1c2.5 11.73-4.99 21.25-16.73 21.25z" fill="#fff"/><path d="m350.39 326.51h-5.48c-13 0-25.74-10.52-28.48-23.45l-4.49-21.06c-1.4-6.6-.08-12.82 3.72-17.52a19.72 19.72 0 0 1 15.73-7.09h5.48c13 0 25.74 10.52 28.48 23.45l4.49 21.1c1.4 6.6.08 12.82-3.72 17.52a19.72 19.72 0 0 1 -15.73 7.05zm-19-63.6a14.28 14.28 0 0 0 -11.41 5c-2.73 3.37-3.65 7.94-2.6 12.87l4.49 21.1c2.23 10.5 12.57 19.05 23.05 19.05h5.48a14.28 14.28 0 0 0 11.41-5c2.73-3.37 3.65-7.94 2.6-12.87l-4.49-21.06c-2.23-10.5-12.57-19.05-23.05-19.05h-5.48z" fill="#262424"/><path d="m316.75 291.23s-10.45-9.31-10.81-20.32 8.81-8.33 8.81-8.33-1.9-16.23 18.67-17.08 50.05 21 31.76 47.84l-5.39-11.43s-24.48 1.69-40.57-9.6c0 .01 4.4 15.39-2.47 18.92z" fill="#262424"/><path d="m359.74 309c-1.39 1.87-4.33 2-6.59.17a8.27 8.27 0 0 0 -5.06-1.86h-7.86a5.44 5.44 0 0 0 -4.27 1.86c-1.51 1.78-4.48 1.7-6.66-.17l-10.74-9.26c5.86 27.56 29.53 26.06 29.53 26.06s24.31 1.5 18.45-26.06zm-5.67 11a2.35 2.35 0 0 1 -1.89.86 3.61 3.61 0 0 1 -2.26-.86l-2.85-1.34h-1l-2.28 1.34a2.35 2.35 0 0 1 -1.89.86 3.61 3.61 0 0 1 -2.26-.86l-4.19-3.45 1.25-1.6a6.56 6.56 0 0 1 5.27-2.39h6.59a10.06 10.06 0 0 1 6.29 2.39l1.93 1.6z" fill="#262424"/><path d="m801.35 278.14h-310.12c-8.53 0-16.91-6.91-18.72-15.44-1.81-8.53 3.63-15.44 12.16-15.44h310.11c8.53 0 16.91 6.91 18.72 15.44 1.82 8.53-3.62 15.44-12.15 15.44z" fill="#fff"/><path d="m801.35 280.92h-310.12c-9.92 0-19.34-7.75-21.44-17.64a15.63 15.63 0 0 1 2.85-13.36 15.07 15.07 0 0 1 12-5.43h310.14c9.92 0 19.34 7.75 21.44 17.64a15.63 15.63 0 0 1 -2.85 13.36 15.07 15.07 0 0 1 -12.02 5.43zm-316.69-30.92a9.63 9.63 0 0 0 -7.7 3.37 10.19 10.19 0 0 0 -1.74 8.71c1.55 7.3 8.73 13.24 16 13.24h310.13a9.63 9.63 0 0 0 7.65-3.32 10.19 10.19 0 0 0 1.74-8.71c-1.55-7.3-8.73-13.24-16-13.24h-310.08z" fill="#262424"/><path d="m625.76 330.23h-123.46c-8.53 0-16.91-6.91-18.72-15.44-1.81-8.53 3.63-15.44 12.16-15.44h123.45c8.53 0 16.91 6.91 18.72 15.44 1.82 8.53-3.62 15.44-12.15 15.44z" fill="#fff"/><path d="m625.76 333h-123.46c-9.92 0-19.34-7.75-21.44-17.64a15.63 15.63 0 0 1 2.86-13.36 15.07 15.07 0 0 1 12-5.43h123.47c9.92 0 19.34 7.75 21.44 17.64a15.63 15.63 0 0 1 -2.86 13.36 15.07 15.07 0 0 1 -12.01 5.43zm-130-30.88a9.63 9.63 0 0 0 -7.7 3.37 10.19 10.19 0 0 0 -1.74 8.71c1.55 7.3 8.73 13.24 16 13.24h123.44a9.63 9.63 0 0 0 7.7-3.37 10.19 10.19 0 0 0 1.74-8.71c-1.55-7.3-8.73-13.24-16-13.24h-123.46z" fill="#262424"/><path d="m482.08 477 31 146c1.61 7.59-3.24 13.75-10.83 13.75h-175.46c-7.59 0-15.06-6.16-16.67-13.75l-31-146c-1.61-7.59 3.24-13.75 10.83-13.75h175.45c7.6.02 15.06 6.18 16.68 13.75z" fill="#fff"/><path d="m502.29 639.54h-175.5c-9 0-17.49-7-19.39-15.95l-31-146a14.22 14.22 0 0 1 2.6-12.15 13.72 13.72 0 0 1 10.94-5h175.46c9 0 17.49 7 19.39 15.95l31 146a14.22 14.22 0 0 1 -2.61 12.15 13.72 13.72 0 0 1 -10.89 5zm-212.39-173.54a8.28 8.28 0 0 0 -6.62 2.89 8.78 8.78 0 0 0 -1.49 7.5l31 146c1.33 6.26 7.72 11.55 14 11.55h175.5a8.28 8.28 0 0 0 6.62-2.89 8.78 8.78 0 0 0 1.49-7.5l-31-146c-1.33-6.26-7.72-11.55-14-11.55z" fill="#262424"/><path d="m482.08 477 2.92 13.77h-203l-2.92-13.77c-1.61-7.59 3.24-13.75 10.83-13.75h175.49c7.6.02 15.06 6.18 16.68 13.75z" fill="#de9244"/><path d="m485 493.54h-203a2.78 2.78 0 0 1 -2.72-2.2l-2.92-13.75a14.22 14.22 0 0 1 2.64-12.15 13.72 13.72 0 0 1 10.94-5h175.46c9 0 17.49 7 19.39 15.95l2.92 13.75a2.78 2.78 0 0 1 -2.71 3.4zm-200.75-5.54h197.32l-2.21-10.4c-1.33-6.26-7.72-11.55-14-11.55h-175.46a8.28 8.28 0 0 0 -6.62 2.89 8.78 8.78 0 0 0 -1.49 7.5z" fill="#de9244"/><path d="m464.7 622 2.55 12h-106.58l-2.55-12c-2.41-11.32 2.43-21.47 12.16-25.5l32.82-13.6 38.6 13.6c11.44 4.07 20.59 14.22 23 25.5z" fill="#88c0c2"/><path d="m382.76 636.79a2.78 2.78 0 0 1 -2.71-2.2l-2.62-12.3a2.78 2.78 0 1 1 5.43-1.16l2.62 12.3a2.78 2.78 0 0 1 -2.14 3.29 2.82 2.82 0 0 1 -.58.07z" fill="#262424"/><path d="m424.06 596.46c2.63 12.35-11.1 13.3-11.1 13.3s-2.08-10.65-6.42-10.65-1.89 10.65-1.89 10.65-14.13-.95-16.76-13.3c-2-9.63 3-14.69 3-14.69h23.91a25.7 25.7 0 0 1 9.26 14.69z" fill="#fff"/><path d="m413 612.54a2.78 2.78 0 0 1 -2.72-2.24c-.73-3.71-2.31-7.22-3.35-8.17a19.71 19.71 0 0 0 .47 7 2.78 2.78 0 0 1 -2.89 3.39c-5.61-.38-16.87-4.1-19.29-15.49-2.33-11 3.51-17 3.76-17.23a2.78 2.78 0 0 1 2-.81h23.91a2.78 2.78 0 0 1 1.6.5 28.43 28.43 0 0 1 10.38 16.38c.91 4.28.26 7.93-1.94 10.84-3.93 5.21-11.37 5.78-11.69 5.8h-.24zm-6.42-16.2c4.85 0 7.37 6.15 8.51 10.23a9.85 9.85 0 0 0 5.37-3.2c1.19-1.59 1.49-3.66.93-6.33a23 23 0 0 0 -7.5-12.49h-21.66c-1 1.56-2.9 5.36-1.63 11.33 1.42 6.66 6.94 9.35 10.68 10.42-.26-2.78-.14-6.15 1.44-8.14a4.78 4.78 0 0 1 3.82-1.82z" fill="#262424"/><path d="m414 589.26s-.36 5-8.51 5-10.65-5-10.65-5l-.42-9.36h16z" fill="#fff"/><path d="m405.51 597.06c-9.76 0-13-6.29-13.13-6.56a2.77 2.77 0 0 1 -.29-1.11l-.42-9.39a2.78 2.78 0 0 1 2.77-2.9h16a2.78 2.78 0 0 1 2.59 1.79l3.56 9.35a2.78 2.78 0 0 1 .17 1.19c-.16 2.66-2.76 7.63-11.25 7.63zm-7.91-8.66c.7.9 2.92 3.11 7.91 3.11 4 0 5.22-1.35 5.6-2.1l-2.56-6.72h-11.2z" fill="#262424"/><path d="m445.15 636.79a2.78 2.78 0 0 1 -2.71-2.2l-2.62-12.3a2.78 2.78 0 1 1 5.43-1.16l2.62 12.3a2.78 2.78 0 0 1 -2.14 3.29 2.82 2.82 0 0 1 -.58.07z" fill="#262424"/><path d="m372.08 562.8h-1.39a7 7 0 0 1 -6.52-5.37l-1.2-5.62a4.22 4.22 0 0 1 4.23-5.37h1.39a7 7 0 0 1 6.52 5.37l1.2 5.62a4.22 4.22 0 0 1 -4.23 5.37z" fill="#fff"/><path d="m372.08 565.58h-1.39a9.79 9.79 0 0 1 -9.23-7.57l-1.19-5.62a7.31 7.31 0 0 1 1.36-6.17 7.12 7.12 0 0 1 5.59-2.56h1.39a9.79 9.79 0 0 1 9.23 7.57l1.19 5.62a7.31 7.31 0 0 1 -1.36 6.17 7.12 7.12 0 0 1 -5.59 2.56zm-4.87-16.37a1.61 1.61 0 0 0 -1.27.5 1.79 1.79 0 0 0 -.24 1.52l1.19 5.62a4.23 4.23 0 0 0 3.8 3.18h1.39a1.61 1.61 0 0 0 1.27-.5 1.79 1.79 0 0 0 .24-1.52l-1.19-5.62a4.23 4.23 0 0 0 -3.8-3.18z" fill="#262424"/><path d="m426.27 562.8h-1.39a7 7 0 0 1 -6.52-5.37l-1.2-5.62a4.22 4.22 0 0 1 4.23-5.37h1.39a7 7 0 0 1 6.52 5.37l1.2 5.62a4.22 4.22 0 0 1 -4.23 5.37z" fill="#fff"/><path d="m426.27 565.58h-1.39a9.79 9.79 0 0 1 -9.23-7.57l-1.19-5.62a7.31 7.31 0 0 1 1.36-6.17 7.12 7.12 0 0 1 5.59-2.56h1.39a9.79 9.79 0 0 1 9.23 7.57l1.19 5.62a7.31 7.31 0 0 1 -1.36 6.17 7.12 7.12 0 0 1 -5.59 2.56zm-4.87-16.37a1.61 1.61 0 0 0 -1.27.5 1.79 1.79 0 0 0 -.24 1.52l1.19 5.62a4.23 4.23 0 0 0 3.8 3.18h1.39a1.61 1.61 0 0 0 1.27-.5 1.79 1.79 0 0 0 .24-1.52l-1.19-5.62a4.23 4.23 0 0 0 -3.8-3.18z" fill="#262424"/><path d="m405.94 585h-5.48c-11.74 0-23.27-9.51-25.77-21.25l-4.49-21.1c-2.5-11.74 5-21.25 16.73-21.25h5.48c11.74 0 23.27 9.51 25.77 21.25l4.49 21.1c2.5 11.74-4.99 21.25-16.73 21.25z" fill="#fff"/><path d="m405.94 587.78h-5.48c-13 0-25.74-10.52-28.48-23.45l-4.49-21.1c-1.4-6.6-.08-12.82 3.72-17.52a19.72 19.72 0 0 1 15.73-7.09h5.48c13 0 25.74 10.52 28.48 23.45l4.49 21.1c1.4 6.6.08 12.82-3.72 17.52a19.72 19.72 0 0 1 -15.73 7.09zm-19-63.6a14.28 14.28 0 0 0 -11.41 5c-2.73 3.37-3.65 7.94-2.6 12.87l4.49 21.1c2.23 10.5 12.57 19.05 23.05 19.05h5.48a14.28 14.28 0 0 0 11.41-5c2.73-3.37 3.65-7.94 2.6-12.87l-4.49-21.1c-2.23-10.5-12.57-19.05-23.05-19.05z" fill="#262424"/><path d="m372.3 552.5s-10.45-9.31-10.81-20.32 8.81-8.33 8.81-8.33-1.9-16.23 18.67-17.08 50.05 21 31.76 47.84l-5.39-11.43s-24.48 1.69-40.57-9.6c0 .01 4.4 15.42-2.47 18.92z" fill="#262424"/><path d="m856.9 539.41h-310.12c-8.53 0-16.91-6.91-18.72-15.44-1.81-8.53 3.63-15.44 12.16-15.44h310.12c8.53 0 16.91 6.91 18.72 15.44 1.81 8.52-3.63 15.44-12.16 15.44z" fill="#fff"/><path d="m856.9 542.18h-310.12c-9.92 0-19.34-7.75-21.44-17.64a15.63 15.63 0 0 1 2.85-13.36 15.07 15.07 0 0 1 12-5.43h310.15c9.92 0 19.33 7.75 21.44 17.64a15.63 15.63 0 0 1 -2.86 13.36 15.08 15.08 0 0 1 -12.02 5.43zm-316.68-30.87a9.63 9.63 0 0 0 -7.7 3.37 10.19 10.19 0 0 0 -1.74 8.71c1.55 7.3 8.73 13.24 16 13.24h310.12a9.63 9.63 0 0 0 7.7-3.37 10.19 10.19 0 0 0 1.74-8.71c-1.55-7.3-8.73-13.24-16-13.24z" fill="#262424"/><path d="m681.31 591.5h-123.45c-8.53 0-16.91-6.91-18.72-15.44-1.81-8.53 3.63-15.44 12.16-15.44h123.45c8.53 0 16.91 6.91 18.72 15.44 1.81 8.53-3.63 15.44-12.16 15.44z" fill="#fff"/><path d="m681.31 594.28h-123.45c-9.92 0-19.34-7.75-21.44-17.64a15.63 15.63 0 0 1 2.86-13.36 15.07 15.07 0 0 1 12-5.43h123.47c9.92 0 19.33 7.75 21.44 17.64a15.63 15.63 0 0 1 -2.86 13.36 15.08 15.08 0 0 1 -12.02 5.43zm-130-30.88a9.63 9.63 0 0 0 -7.7 3.37 10.19 10.19 0 0 0 -1.74 8.71c1.55 7.3 8.73 13.24 16 13.24h123.44a9.63 9.63 0 0 0 7.7-3.37 10.19 10.19 0 0 0 1.74-8.71c-1.55-7.3-8.73-13.24-16-13.24h-123.46z" fill="#262424"/><path d="m537.63 738.28 31 146c1.61 7.59-3.24 13.75-10.83 13.75h-175.45c-7.59 0-15.06-6.16-16.67-13.75l-31-146c-1.61-7.59 3.24-13.75 10.83-13.75h175.49c7.55 0 15 6.16 16.63 13.75z" fill="#fff"/><path d="m557.85 900.81h-175.5c-9 0-17.49-7-19.39-15.95l-31-146a14.22 14.22 0 0 1 2.61-12.15 13.72 13.72 0 0 1 10.94-5h175.49c9 0 17.49 7 19.39 15.95l31 146a14.22 14.22 0 0 1 -2.61 12.15 13.72 13.72 0 0 1 -10.93 5zm-212.39-173.5a8.28 8.28 0 0 0 -6.62 2.89 8.78 8.78 0 0 0 -1.49 7.5l31 146c1.33 6.26 7.72 11.55 14 11.55h175.5a8.28 8.28 0 0 0 6.62-2.89 8.78 8.78 0 0 0 1.49-7.5l-31-146c-1.33-6.26-7.72-11.55-14-11.55z" fill="#262424"/><path d="m537.63 738.28 2.92 13.72h-203l-2.92-13.75c-1.61-7.59 3.24-13.75 10.83-13.75h175.54c7.55.03 15 6.19 16.63 13.78z" fill="#de9244"/><path d="m540.55 754.81h-203a2.78 2.78 0 0 1 -2.72-2.2l-2.92-13.75a14.22 14.22 0 0 1 2.61-12.15 13.72 13.72 0 0 1 10.94-5h175.54c9 0 17.49 7 19.39 15.95l2.92 13.75a2.78 2.78 0 0 1 -2.76 3.4zm-200.75-5.55h197.32l-2.21-10.4c-1.33-6.26-7.72-11.55-14-11.55h-175.45a8.28 8.28 0 0 0 -6.62 2.89 8.78 8.78 0 0 0 -1.49 7.5z" fill="#de9244"/><path d="m420.39 793.25-3.34.2 8.77 41.24a30 30 0 0 0 22.53 22.31 66.45 66.45 0 0 0 13.29 1.25l-13.82-65z" fill="#262424"/><path d="m475.25 793.25 3.43.2 8.77 41.24c2.27 10.68-3.08 20.08-13.05 22.31a58.67 58.67 0 0 1 -12.75 1.25l-13.82-65h27.43z" fill="#262424"/><path d="m520.26 883.31 2.55 12h-106.58l-2.55-12c-2.41-11.32 2.43-21.47 12.16-25.5l32.82-13.6 38.6 13.6c11.43 4.03 20.59 14.19 23 25.5z" fill="#de9244"/><path d="m438.32 898.06a2.78 2.78 0 0 1 -2.71-2.2l-2.61-12.3a2.78 2.78 0 0 1 5.43-1.15l2.62 12.3a2.78 2.78 0 0 1 -2.73 3.35z" fill="#262424"/><path d="m479.61 857.73c2.63 12.35-11.1 13.3-11.1 13.3s-2.08-10.65-6.42-10.65-1.89 10.62-1.89 10.62-14.13-.95-16.76-13.3c-2-9.63 3-14.69 3-14.69h23.91a25.7 25.7 0 0 1 9.26 14.72z" fill="#fff"/><path d="m468.51 873.81a2.78 2.78 0 0 1 -2.72-2.24c-.73-3.71-2.31-7.22-3.35-8.17a19.71 19.71 0 0 0 .47 7 2.78 2.78 0 0 1 -2.91 3.4c-5.61-.38-16.87-4.1-19.29-15.49-2.33-11 3.51-17 3.76-17.23a2.77 2.77 0 0 1 2-.81h23.91a2.78 2.78 0 0 1 1.6.5 28.43 28.43 0 0 1 10.38 16.38c.91 4.28.26 7.93-1.94 10.84-3.93 5.21-11.37 5.78-11.69 5.8h-.19zm-6.42-16.2c4.85 0 7.37 6.15 8.51 10.23a9.84 9.84 0 0 0 5.37-3.2c1.19-1.59 1.49-3.66.93-6.33a23.05 23.05 0 0 0 -7.5-12.49h-21.61c-1 1.56-2.9 5.36-1.63 11.33 1.41 6.62 6.94 9.32 10.68 10.4-.25-2.78-.14-6.14 1.44-8.12a4.78 4.78 0 0 1 3.81-1.82z" fill="#262424"/><path d="m469.58 850.53s-.36 5-8.51 5-10.65-5-10.65-5l-.42-9.36h16z" fill="#fff"/><path d="m461.06 858.32c-9.76 0-13-6.29-13.13-6.56a2.77 2.77 0 0 1 -.29-1.11l-.42-9.36a2.78 2.78 0 0 1 2.77-2.9h16a2.78 2.78 0 0 1 2.59 1.79l3.56 9.35a2.77 2.77 0 0 1 .17 1.19c-.15 2.64-2.76 7.6-11.25 7.6zm-7.91-8.66c.7.9 2.92 3.11 7.91 3.11 4 0 5.22-1.35 5.6-2.1l-2.56-6.67h-11.2z" fill="#262424"/><path d="m500.7 898.06a2.78 2.78 0 0 1 -2.71-2.2l-2.62-12.3a2.78 2.78 0 0 1 5.43-1.15l2.62 12.3a2.78 2.78 0 0 1 -2.72 3.35z" fill="#262424"/><path d="m427.63 824.07h-1.39a7 7 0 0 1 -6.52-5.37l-1.2-5.62a4.22 4.22 0 0 1 4.23-5.37h1.39a7 7 0 0 1 6.52 5.37l1.2 5.62a4.22 4.22 0 0 1 -4.23 5.37z" fill="#fff"/><path d="m427.63 826.85h-1.39a9.78 9.78 0 0 1 -9.23-7.57l-1.19-5.62a7.31 7.31 0 0 1 1.36-6.17 7.12 7.12 0 0 1 5.59-2.56h1.39a9.78 9.78 0 0 1 9.23 7.57l1.19 5.62a7.31 7.31 0 0 1 -1.36 6.17 7.12 7.12 0 0 1 -5.59 2.56zm-4.87-16.37a1.61 1.61 0 0 0 -1.27.5 1.79 1.79 0 0 0 -.24 1.52l1.19 5.62a4.23 4.23 0 0 0 3.8 3.18h1.39a1.61 1.61 0 0 0 1.27-.5 1.79 1.79 0 0 0 .24-1.52l-1.14-5.63a4.23 4.23 0 0 0 -3.8-3.18h-1.39z" fill="#262424"/><path d="m481.82 824.07h-1.39a7 7 0 0 1 -6.52-5.37l-1.2-5.62a4.22 4.22 0 0 1 4.29-5.38h1.39a7 7 0 0 1 6.52 5.37l1.2 5.62a4.22 4.22 0 0 1 -4.29 5.38z" fill="#fff"/><path d="m481.82 826.85h-1.39a9.78 9.78 0 0 1 -9.23-7.57l-1.2-5.63a7.31 7.31 0 0 1 1.36-6.17 7.12 7.12 0 0 1 5.59-2.56h1.39a9.78 9.78 0 0 1 9.23 7.57l1.2 5.62a7.31 7.31 0 0 1 -1.36 6.17 7.12 7.12 0 0 1 -5.59 2.57zm-4.82-16.37a1.61 1.61 0 0 0 -1.27.5 1.79 1.79 0 0 0 -.24 1.52l1.19 5.62a4.23 4.23 0 0 0 3.8 3.18h1.39a1.61 1.61 0 0 0 1.27-.5 1.79 1.79 0 0 0 .24-1.52l-1.2-5.62a4.23 4.23 0 0 0 -3.8-3.18z" fill="#262424"/><path d="m461.5 846.27h-5.5c-11.74 0-23.27-9.51-25.77-21.25l-4.49-21.1c-2.5-11.74 5-21.25 16.73-21.25h5.53c11.74 0 23.27 9.51 25.77 21.25l4.49 21.1c2.46 11.74-5.03 21.25-16.76 21.25z" fill="#fff"/><path d="m461.5 849.05h-5.5c-13 0-25.73-10.52-28.48-23.45l-4.52-21.1c-1.4-6.6-.08-12.82 3.72-17.52a19.72 19.72 0 0 1 15.73-7.09h5.55c13 0 25.74 10.52 28.48 23.45l4.49 21.1c1.4 6.6.08 12.82-3.72 17.52a19.72 19.72 0 0 1 -15.75 7.09zm-19-63.6a14.28 14.28 0 0 0 -11.41 5c-2.73 3.37-3.65 7.94-2.6 12.87l4.49 21.1c2.22 10.58 12.56 19.08 23.02 19.08h5.48a14.28 14.28 0 0 0 11.41-5c2.73-3.37 3.65-7.94 2.6-12.87l-4.49-21.13c-2.23-10.5-12.57-19.05-23.05-19.05h-5.48z" fill="#262424"/><path d="m477.36 813.77s6.49-9.31 2.17-20.32-12.35-8.33-12.35-8.33-5-16.23-25.93-17.08-41.11 21-11.42 47.84l.53-11.43s25.2 1.69 36.49-9.6c0 .01 2.15 15.39 10.51 18.92z" fill="#262424"/><path d="m912.46 800.68h-310.12c-8.53 0-16.91-6.91-18.72-15.44-1.81-8.53 3.63-15.44 12.16-15.44h310.11c8.53 0 16.91 6.91 18.72 15.44 1.82 8.52-3.61 15.44-12.15 15.44z" fill="#fff"/><path d="m912.46 803.45h-310.12c-9.92 0-19.34-7.75-21.44-17.64a15.63 15.63 0 0 1 2.86-13.36 15.07 15.07 0 0 1 12-5.43h310.13c9.92 0 19.34 7.75 21.44 17.64a15.63 15.63 0 0 1 -2.86 13.34 15.07 15.07 0 0 1 -12.01 5.45zm-316.69-30.88a9.63 9.63 0 0 0 -7.7 3.37 10.2 10.2 0 0 0 -1.74 8.71c1.55 7.3 8.73 13.24 16 13.24h310.13a9.63 9.63 0 0 0 7.7-3.37 10.19 10.19 0 0 0 1.74-8.71c-1.55-7.3-8.73-13.24-16-13.24z" fill="#262424"/><path d="m736.87 852.77h-123.46c-8.53 0-16.91-6.91-18.72-15.44-1.81-8.53 3.63-15.44 12.16-15.44h123.45c8.53 0 16.91 6.91 18.72 15.44 1.82 8.53-3.63 15.44-12.15 15.44z" fill="#fff"/><path d="m736.87 855.55h-123.46c-9.92 0-19.33-7.75-21.44-17.64a15.63 15.63 0 0 1 2.86-13.36 15.07 15.07 0 0 1 12-5.43h123.47c9.92 0 19.33 7.75 21.44 17.64a15.63 15.63 0 0 1 -2.86 13.36 15.08 15.08 0 0 1 -12.01 5.43zm-130-30.88a9.63 9.63 0 0 0 -7.7 3.37 10.19 10.19 0 0 0 -1.74 8.71c1.55 7.3 8.73 13.24 16 13.24h123.44a9.63 9.63 0 0 0 7.7-3.37 10.19 10.19 0 0 0 1.74-8.71c-1.55-7.3-8.73-13.24-16-13.24h-123.46z" fill="#262424"/><path d="m994.68 1111.39 2.23 57.26 26.18 2.11 3.58-61.97z" fill="#fff"/><path d="m1023.09 1173.54h-.22l-26.18-2.11a2.78 2.78 0 0 1 -2.55-2.66l-2.23-57.26a2.78 2.78 0 0 1 2.55-2.88l32-2.6a2.78 2.78 0 0 1 3 2.93l-3.58 62a2.78 2.78 0 0 1 -2.79 2.58zm-23.5-7.46 20.89 1.68 3.23-55.95-26.15 2.13z" fill="#262424"/><path d="m1078.8 771.48c-2.06 15.38-36.73 347.9-36.73 347.9l-62.16.42-11.63-163.8-3.22-45.31-15.9-223.94c-6.14-75.59 118.1-76 128.95-6.72 4.55 29.05 2.75 76.06.69 91.45z" fill="#88c0c2"/><path d="m1029.79 1098.47h-.25a2.78 2.78 0 0 1 -2.51-3l36.54-401.12a2.78 2.78 0 0 1 5.53.5l-36.54 401.12a2.78 2.78 0 0 1 -2.77 2.5z" fill="#262424"/><path d="m1061.75 747.56a10.21 10.21 0 0 1 -7.73-3.61c-10.82-12.08-6.62-53.48-6.11-58.16a2.78 2.78 0 1 1 5.52.61c-1.32 12-3 45.18 4.73 53.85a4.63 4.63 0 0 0 3.59 1.76 2.78 2.78 0 0 1 0 5.55z" fill="#262424"/><path d="m1013.56 930.65c.32 19.37-11.35 35.27-26.08 35.52-7.46.12-14.26-3.79-19.21-10.2l-3.22-45.31c4.72-8.75 12.44-14.51 21.26-14.65 14.69-.23 26.93 15.27 27.25 34.64z" fill="#fff"/><path d="m1037.75 1109.71-51.19-.25a2.78 2.78 0 1 1 0-5.55l51.19.25a2.78 2.78 0 0 1 0 5.55z" fill="#262424"/><path d="m906.08 1265.55v12.2h125.6s.41-6.37.8-17.08c.78-21.07 1.53-59-.8-98.11l-45.82-4s-23.46 39.44-54.08 72.89c-3.18 3.47-11.58 9.18-15.11 12.39-6.76 6.16-10.59 13.78-10.59 21.71z" fill="#88c0c2"/><path d="m971.81 1234.23a2.78 2.78 0 0 1 -2.28-4.36c21.83-31.45 34-66.12 34.09-66.47a2.78 2.78 0 0 1 5.25 1.82c-.12.35-12.51 35.75-34.77 67.82a2.78 2.78 0 0 1 -2.29 1.19z" fill="#262424"/><ellipse cx="1017.38" cy="1214.15" fill="#fff" rx="8.25" ry="18.65"/><path d="m1017.38 1235.91c-7.45 0-11.35-10.95-11.35-21.76s3.9-21.76 11.35-21.76 11.35 10.95 11.35 21.76-3.9 21.76-11.35 21.76zm0-37.3c-1.49 0-5.14 5.45-5.14 15.55s3.65 15.54 5.14 15.54 5.14-5.45 5.14-15.54-3.65-15.56-5.14-15.56z" fill="#262424"/><path d="m906.08 1265.55v12.2h125.6s.41-6.37.8-17.08h-57.54s3.24-32.56-43.16-29.23c-3.18 3.47-11.58 9.18-15.11 12.39-6.76 6.17-10.59 13.79-10.59 21.72z" fill="#fff"/><path d="m1031.68 1280.53h-125.6a2.78 2.78 0 0 1 -2.78-2.78v-12.2c0-8.57 4.08-17 11.5-23.77 1.54-1.4 3.86-3.18 6.32-5.06a81.85 81.85 0 0 0 8.61-7.15 2.78 2.78 0 0 1 1.85-.9c17.4-1.25 30.21 2.24 38.11 10.36a29.24 29.24 0 0 1 8 18.87h54.74a2.78 2.78 0 0 1 2.78 2.88c-.39 10.62-.8 17.09-.8 17.15a2.78 2.78 0 0 1 -2.73 2.6zm-122.82-5.53h120.2c.13-2.39.33-6.34.53-11.52h-54.65a2.78 2.78 0 0 1 -2.76-3.05c0-.09.83-10-6.52-17.55-6.56-6.7-17.54-9.63-32.63-8.7a102.58 102.58 0 0 1 -8.53 7c-2.36 1.81-4.59 3.51-6 4.75-6.25 5.69-9.69 12.68-9.69 19.67v9.4z" fill="#262424"/><path d="m1225.36 1112.05 8.95 56.6-25.27 7.17-15.57-60.09z" fill="#fff"/><path d="m1209 1178.59a2.78 2.78 0 0 1 -2.69-2.08l-15.57-60.09a2.78 2.78 0 0 1 2.37-3.46l31.88-3.68a2.79 2.79 0 0 1 3.06 2.33l9 56.6a2.78 2.78 0 0 1 -2 3.11l-25.27 7.17a2.79 2.79 0 0 1 -.78.1zm-12-60.47 14.06 54.25 20.16-5.72-8.15-51.54z" fill="#262424"/><path d="m1076.68 795c5 14.68 103.75 334.09 103.75 334.09l61.05-11.69-20.48-162.93-5.66-45.07-28-222.75c-8.69-75.34-130.63-51.52-127.79 18.51 1.19 29.41 12.11 75.16 17.13 89.84z" fill="#88c0c2"/><path d="m1061.61 749.11h-.19a2.78 2.78 0 0 1 -2.58-3l4.71-70.16a2.78 2.78 0 0 1 5.54.37l-4.71 70.16a2.78 2.78 0 0 1 -2.77 2.63z" fill="#262424"/><path d="m1187.87 1106.27a2.78 2.78 0 0 1 -2.66-2l-106.92-350.5a2.78 2.78 0 1 1 5.31-1.62l106.92 350.5a2.78 2.78 0 0 1 -2.65 3.62z" fill="#262424"/><path d="m1171.65 938.45c3.46 19.07 18 32.39 32.49 29.77 7.34-1.33 13.25-6.49 16.85-13.74l-5.66-45.07c-6.33-7.66-15-11.81-23.7-10.23-14.48 2.62-23.43 20.2-19.98 39.27z" fill="#fff"/><path d="m1182.24 1118.84a2.78 2.78 0 0 1 -.55-5.5l50.16-10.21a2.78 2.78 0 0 1 1.11 5.44l-50.16 10.21a2.78 2.78 0 0 1 -.56.06z" fill="#262424"/><path d="m1325.15 1265.55v12.2h-125.6s-.41-6.37-.8-17.08c-.78-21.07-1.53-59 .8-98.11l45.82-4s23.46 39.44 54.08 72.89c3.18 3.47 11.58 9.18 15.11 12.39 6.75 6.16 10.59 13.78 10.59 21.71z" fill="#88c0c2"/><path d="m1259.42 1234.23a2.78 2.78 0 0 1 -2.28-1.19c-22.26-32.07-34.65-67.46-34.78-67.82a2.78 2.78 0 0 1 5.25-1.82c.12.35 12.28 35 34.09 66.47a2.78 2.78 0 0 1 -2.28 4.36z" fill="#262424"/><ellipse cx="1213.85" cy="1214.15" fill="#fff" rx="8.25" ry="18.65"/><path d="m1213.85 1235.91c-7.46 0-11.36-10.95-11.36-21.76s3.9-21.76 11.36-21.76 11.35 10.95 11.35 21.76-3.9 21.76-11.35 21.76zm0-37.3c-1.49 0-5.14 5.45-5.14 15.55s3.65 15.54 5.14 15.54 5.14-5.45 5.14-15.54-3.65-15.56-5.14-15.56z" fill="#262424"/><path d="m1325.15 1265.55v12.2h-125.6s-.41-6.37-.8-17.08h57.53s-3.24-32.56 43.16-29.23c3.18 3.47 11.58 9.18 15.11 12.39 6.76 6.17 10.6 13.79 10.6 21.72z" fill="#fff"/><path d="m1325.15 1280.53h-125.6a2.78 2.78 0 0 1 -2.77-2.6c0-.06-.41-6.53-.8-17.15a2.78 2.78 0 0 1 2.78-2.88h54.74a29.24 29.24 0 0 1 8-18.87c7.9-8.12 20.72-11.61 38.11-10.36a2.78 2.78 0 0 1 1.85.9 81.85 81.85 0 0 0 8.61 7.15c2.46 1.88 4.78 3.66 6.32 5.06 7.42 6.76 11.5 15.2 11.5 23.77v12.2a2.78 2.78 0 0 1 -2.74 2.78zm-123-5.55h120.2v-9.42c0-7-3.44-14-9.69-19.67-1.36-1.24-3.59-2.95-6-4.75a102.58 102.58 0 0 1 -8.53-7c-15.1-.92-26.07 2-32.63 8.7-7.36 7.51-6.53 17.46-6.52 17.56a2.78 2.78 0 0 1 -2.76 3h-54.65c.27 5.24.43 9.19.6 11.6z" fill="#262424"/><path d="m980.7 381.44c-33.3 14.18-70.78 119.84-69 159.8 1.82 41.22 57.84 36.54 76.27 7.11 31.67-54.53 27.29-181.63-7.27-166.91z" fill="#de9244"/><path d="m1191.24 410.32 3.62 292.68s-8.21 1.13-22.38 2.44v-33.7a4.91 4.91 0 0 0 -5.84-4.83 5.06 5.06 0 0 0 -4 5v34.36c-46.54 3.79-136.15 7.42-219.38-10 0 0 10.62-246 37.43-314.88 0 0 47.08-26.87 101.11-25.78 36.59.74 73.73 17.86 93.88 28.83a29.82 29.82 0 0 1 15.56 25.88z" fill="#de9244"/><path d="m955.75 526.73h-.29a2.78 2.78 0 0 1 -2.48-3c6.16-60.22 13.23-104.26 21-130.9a2.78 2.78 0 0 1 5.33 1.56c-7.68 26.32-14.69 70-20.81 129.91a2.78 2.78 0 0 1 -2.75 2.43z" fill="#262424"/><path d="m1091.22 697.56a1119.5 1119.5 0 0 1 -137.22-8.83 2.67 2.67 0 0 1 .74-5.28c1 .14 101.2 14 195.28 6.65a2.67 2.67 0 0 1 .41 5.32c-19.82 1.53-39.87 2.14-59.21 2.14z" fill="#262424"/><path d="m1113.85 381c-7.4 17.21-21.3 29.18-30 31.91-2.24-12.27-8.4-27.71-8.4-27.71-6.85 9.42-10.46 21.89-11.36 27.57-22.17-6.09-24.69-32.4-24.69-32.4a36.13 36.13 0 0 1 36.83-31.9c34.84 1.15 37.62 32.53 37.62 32.53z" fill="#fff"/><path d="m1083.85 415.66a2.78 2.78 0 0 1 -2.73-2.28 152.78 152.78 0 0 0 -6.33-22.05 71.45 71.45 0 0 0 -8 21.85 2.78 2.78 0 0 1 -3.48 2.25c-23.74-6.53-26.61-33.66-26.72-34.82a2.75 2.75 0 0 1 0-.61 38.78 38.78 0 0 1 39.68-34.32c36.86 1.25 40.25 34.72 40.28 35.06a2.77 2.77 0 0 1 -.21 1.34c-7.59 17.65-22 30.41-31.72 33.46a2.77 2.77 0 0 1 -.77.12zm-41.65-35.3c.34 2.6 3.44 22.29 19.78 28.76 1.48-6.43 5-17 11.22-25.58a2.78 2.78 0 0 1 4.83.6 189.78 189.78 0 0 1 7.87 24.86c7.49-3.75 18.58-13.78 25.1-28.48-.62-4.45-5.33-28.33-34.86-29.33a33.27 33.27 0 0 0 -33.94 29.16z" fill="#262424"/><path d="m1054.51 565.63-41-11.06a8.25 8.25 0 0 0 -5.29.34l-29.44 12.09a8.25 8.25 0 0 0 -4.54 10.61l7 18a8.25 8.25 0 0 0 10.32 4.84l13.14-4.42 17.09 4.33a28.79 28.79 0 0 0 19.76-2.06l13-6.37v-26.3z" fill="#fff"/><path d="m1028.83 604.05a31.55 31.55 0 0 1 -7.75-1l-16.3-4.13-12.36 4.16a11 11 0 0 1 -13.8-6.47l-7-18a11.09 11.09 0 0 1 6.07-14.18l29.38-12.13a11.08 11.08 0 0 1 7.08-.46l41 11.06a2.78 2.78 0 0 1 2.05 2.68v26.42a2.78 2.78 0 0 1 -1.55 2.49l-13 6.37a31.59 31.59 0 0 1 -13.82 3.19zm-24.16-10.77a2.79 2.79 0 0 1 .68.08l17.09 4.33a26 26 0 0 0 17.86-1.86l11.43-5.61v-22.46l-39-10.5a5.51 5.51 0 0 0 -3.51.23l-29.38 12.13a5.5 5.5 0 0 0 -3 7l7 18a5.47 5.47 0 0 0 6.85 3.21l13.14-4.42a2.77 2.77 0 0 1 .84-.13z" fill="#262424"/><path d="m1208.78 578c-4.43 11.13-10 19.7-16.66 24.29-8.77 6-20.1 9.42-32.52 11.07-46.87 6.19-109.35-12.8-109.35-12.8l-1.54-40.88 88.29-16.06s8.73-158 38-156.22c43.12 2.6 50.53 148.6 33.78 190.6z" fill="#de9244"/><path d="m1208.78 578c-4.4 11.15-10 19.7-16.66 24.29-8.77 6-20.1 9.42-32.52 11.07a33 33 0 0 1 49.18-35.36z" fill="#fff"/><path d="m1163.6 575.85a2.77 2.77 0 0 1 -2.06-.92l-26.54-29.45a2.78 2.78 0 0 1 4.13-3.72l26.56 29.46a2.78 2.78 0 0 1 -2.09 4.63z" fill="#262424"/><path d="m1139 617.42c-42.4 0-87.43-13.52-89.57-14.17a2.78 2.78 0 0 1 -2-2.55l-1.54-40.89a2.78 2.78 0 0 1 2.28-2.84l86.19-15.7c1-16.57 7.82-116.25 26.85-146.89a2.78 2.78 0 1 1 4.72 2.93c-19.59 31.55-26.09 145.31-26.15 146.46a2.78 2.78 0 0 1 -2.27 2.58l-86 15.66 1.37 36.48c10.37 2.95 61.26 16.59 101.81 12.67a2.78 2.78 0 0 1 .53 5.53c-5.22.5-10.71.73-16.22.73z" fill="#262424"/><path d="m1072.16 592.53a2.78 2.78 0 0 1 -2.77-2.59l-2.25-33.9a2.78 2.78 0 0 1 5.54-.37l2.25 33.9a2.78 2.78 0 0 1 -2.59 3h-.19z" fill="#262424"/><circle cx="1060.4" cy="590.02" fill="#fff" r="4.55" transform="matrix(.78822561 -.61538637 .61538637 .78822561 -138.54 777.41)"/><path d="m1060.41 597.35a7.43 7.43 0 0 1 -.91-.06 7.33 7.33 0 1 1 6.67-11.78 7.33 7.33 0 0 1 -5.76 11.84zm0-9.1a1.77 1.77 0 1 0 1.4.68 1.77 1.77 0 0 0 -1.42-.68z" fill="#262424"/><path d="m1093.54 308.62-.54 21.38-1 36.63c-12.32 8.61-24.31 9.52-35.87.84l1.69-17 2.56-25.77z" fill="#fff"/><path d="m1072.87 376.39q-9.51 0-18.4-6.66a2.78 2.78 0 0 1 -1.1-2.5l4.26-42.79a2.77 2.77 0 0 1 1.55-2.22l33.15-16.1a2.78 2.78 0 0 1 4 2.57l-1.54 58a2.77 2.77 0 0 1 -1.18 2.2c-7.11 5.02-14.03 7.5-20.74 7.5zm-13.81-10.2c9.45 6.47 19.36 6.13 30.21-1l1.38-52.06-27.65 13.41z" fill="#262424"/><path d="m1082.1 314.18c-.17 9.67.72 42.62-25.24 46.18l3.55-35.64z" fill="#262424"/><path d="m1027.66 321.81c5.35 16.88 14.68 36.45 34.69 28.91 23.79-9 36-29.69 31.37-53.14s-18.24-34.39-45.7-25.83a43.93 43.93 0 0 0 -6.8 2.74c-15.21 7.73-20.52 22.79-16.23 38.26.79 2.79 1.65 5.88 2.67 9.06z" fill="#fff"/><path d="m1054 355.16a20.21 20.21 0 0 1 -9.27-2.21c-12.26-6.22-18-23.63-22.36-39.47-5.6-20.17 4.4-38 24.88-44.39a2.78 2.78 0 1 1 1.65 5.3c-17.68 5.51-26 20.27-21.18 37.61 2.94 10.61 8.42 30.36 19.52 36 4.16 2.11 8.8 2.15 14.18.12a49.74 49.74 0 0 0 21.17-14.59 2.78 2.78 0 0 1 4.28 3.54 56 56 0 0 1 -23.49 16.24 26.59 26.59 0 0 1 -9.38 1.85z" fill="#262424"/><path d="m1102 300.44a73.45 73.45 0 0 1 -5.94 11.28l-12.24 3.37-4.49-8.23s-7.94 1.3-10.69-3.67a3.14 3.14 0 0 1 -.18-.35c-.78-1.65-4-9.08-5.37-21.38 0 0-17.17 12.32-27.24 15.56-3.62 1.17-8.25.65-12.69-.49-8.9-2.29-18.69-14-19.15-23.13v-.18c-.51-13.48 8.16-5.88 8.16-5.88s-.26-10.89 6.15-13 12.62 6.68 12.62 6.68a105.64 105.64 0 0 1 38.11-9.66c26.19-1.44 23.54 17.36 23.54 17.36s19.88 2.06 9.41 31.72z" fill="#262424"/><path d="m1086.2 313.19c-3.11-9.55 1.86-20.08 11.39-23.25a16.74 16.74 0 0 1 6.28-.86c12.79.73 15.53 29.59-14.56 33.66z" fill="#fff"/><path d="m1089.31 325.52a2.78 2.78 0 0 1 -.37-5.53c16.15-2.18 21.54-11.7 21.25-19.2-.17-4.27-2.45-8.71-6.49-8.94a14.07 14.07 0 0 0 -5.24.72 15.63 15.63 0 0 0 -9.63 19.75 2.78 2.78 0 0 1 -5.28 1.72 21.19 21.19 0 0 1 13.15-26.74 19.55 19.55 0 0 1 7.31-1c6.49.37 11.41 6.37 11.72 14.27.41 10.59-7.49 22.41-26.06 24.91z" fill="#262424"/><path d="m1038.52 343.15 9.82 15.7 31.39-19.2a5.36 5.36 0 0 1 7.75 2.51 5.36 5.36 0 0 1 -.57 5.16l-4 5.64 7.61 16.42a15.82 15.82 0 0 1 -4.44 19l-22.62 18.19-14.05 15.78-24.85-22.39 13.66-15-5-12.7-3.85-25.69a5 5 0 0 1 3.39-5.48 5 5 0 0 1 5.76 2.06z" fill="#fff"/><path d="m1049.41 425.1a2.78 2.78 0 0 1 -1.86-.71l-24.85-22.39a2.78 2.78 0 0 1 -.2-3.93l12.5-13.73-4.38-11.09a2.79 2.79 0 0 1 -.16-.61l-3.85-25.69a7.76 7.76 0 0 1 14.26-5.27l8.36 13.37 29-17.76a8.14 8.14 0 0 1 10.9 11.64l-3.06 4.33 6.93 15a18.56 18.56 0 0 1 -5.22 22.3l-22.44 18-13.9 15.61a2.77 2.77 0 0 1 -1.92.93h-.15zm-20.92-25.36 20.7 18.65 12.2-13.7a2.73 2.73 0 0 1 .33-.32l22.62-18.19a13 13 0 0 0 3.66-15.64l-7.61-16.42a2.77 2.77 0 0 1 .25-2.77l4-5.64a2.59 2.59 0 0 0 -3.46-3.7l-31.39 19.2a2.78 2.78 0 0 1 -3.8-.9l-9.82-15.7a2.21 2.21 0 0 0 -4.06 1.5l3.8 25.38 4.9 12.4a2.78 2.78 0 0 1 -.53 2.89z" fill="#262424"/><path d="m1056.35 421.87s-53.1 142.83-103.72 150.79c-.73.12-1.46.21-2.18.27-25.22 2-35.59-10.22-38.11-25.65-2.29-14 1.86-30.62 7.23-41.62 20.14-41.27 104.54-113.47 104.54-113.47z" fill="#de9244"/><path d="m1039.62 438.85a2.76 2.76 0 0 1 -1.89-.74l-31.73-29.48a2.78 2.78 0 1 1 3.78-4.07l31.72 29.44a2.78 2.78 0 0 1 -1.88 4.85z" fill="#262424"/><circle cx="1041.71" cy="422.78" fill="#fff" r="4.56" transform="matrix(.03838781 -.99926292 .99926292 .03838781 579.24 1447.49)"/><path d="m1041.72 430.11h-.29a7.34 7.34 0 1 1 .29 0zm0-9.11a1.78 1.78 0 1 0 .07 0z" fill="#262424"/><path d="m960.49 573.16a2.78 2.78 0 0 1 -1.07-5.34c43.46-18.14 87.75-129.84 93.66-145.18l-29-26.73c-12.49 10.88-84 74.06-102 111a2.78 2.78 0 0 1 -5-2.44c20.16-41.32 101.77-111.4 105.23-114.37a2.78 2.78 0 0 1 3.69.07l32.24 29.68a2.78 2.78 0 0 1 .72 3c-2 5.29-48.73 129.8-97.39 150.11a2.77 2.77 0 0 1 -1.08.2z" fill="#262424"/><path d="m955.54 569.1a36.91 36.91 0 0 1 -2.91 3.56c-.73.12-1.46.21-2.18.27-25.22 2-35.59-10.22-38.11-25.65a36.24 36.24 0 0 1 3.66-6.48c9.6-13.39 26.22-17.9 37.11-10.09s12.02 25.01 2.43 38.39z" fill="#fbfeff"/><path d="m1388.65 536.31v130.69a7.24 7.24 0 0 1 -7.23 7.24h-104.2a7.24 7.24 0 0 1 -7.22-7.24v-130.69a7.23 7.23 0 0 1 7.23-7.23h104.2a7.23 7.23 0 0 1 7.22 7.23z" fill="#fff"/><path d="m1381.42 677h-104.2a10 10 0 0 1 -10-10v-130.69a10 10 0 0 1 10-10h104.2a10 10 0 0 1 10 10v130.69a10 10 0 0 1 -10 10zm-104.2-145.14a4.46 4.46 0 0 0 -4.45 4.45v130.69a4.46 4.46 0 0 0 4.45 4.46h104.2a4.46 4.46 0 0 0 4.45-4.46v-130.69a4.46 4.46 0 0 0 -4.45-4.45z" fill="#262424"/><path d="m1375.19 545h-82.05a7.24 7.24 0 0 0 -7.24 7.24v130.66a7.24 7.24 0 0 0 7.24 7.24h104.19a7.24 7.24 0 0 0 7.24-7.24v-108.52z" fill="#fff"/><path d="m1397.34 692.92h-104.2a10 10 0 0 1 -10-10v-130.68a10 10 0 0 1 10-10h82.05a2.78 2.78 0 0 1 2 .81l29.38 29.38a2.78 2.78 0 0 1 .81 2v108.47a10 10 0 0 1 -10.04 10.02zm-104.2-145.14a4.46 4.46 0 0 0 -4.46 4.46v130.66a4.46 4.46 0 0 0 4.46 4.46h104.2a4.46 4.46 0 0 0 4.46-4.46v-107.37l-27.8-27.75h-80.9z" fill="#262424"/><rect fill="#fff" height="10.32" rx="5.16" width="77" x="1306.74" y="594.82"/><path d="m1378.58 607.92h-66.68a7.94 7.94 0 0 1 0-15.87h66.68a7.94 7.94 0 0 1 0 15.87zm-66.68-10.32a2.38 2.38 0 1 0 0 4.77h66.68a2.38 2.38 0 1 0 0-4.77z" fill="#262424"/><rect fill="#fff" height="10.32" rx="5.16" width="77" x="1306.74" y="621.34"/><path d="m1378.58 634.43h-66.68a7.94 7.94 0 0 1 0-15.87h66.68a7.94 7.94 0 0 1 0 15.87zm-66.68-10.32a2.38 2.38 0 1 0 0 4.77h66.68a2.38 2.38 0 1 0 0-4.77z" fill="#262424"/><rect fill="#fff" height="10.32" rx="5.16" width="77" x="1306.74" y="647.85"/><path d="m1378.58 660.95h-66.68a7.94 7.94 0 0 1 0-15.87h66.68a7.94 7.94 0 0 1 0 15.87zm-66.68-10.32a2.38 2.38 0 1 0 0 4.77h66.68a2.38 2.38 0 1 0 0-4.77z" fill="#262424"/><path d="m1375.19 567.15a7.24 7.24 0 0 0 7.24 7.24h22.14l-29.38-29.39v22.14z" fill="#fff"/><path d="m1404.57 577.16h-22.14a10 10 0 0 1 -10-10v-22.16a2.78 2.78 0 0 1 4.74-2l29.38 29.38a2.78 2.78 0 0 1 -1.98 4.78zm-26.57-25.45v15.44a4.46 4.46 0 0 0 4.46 4.46h15.44z" fill="#262424"/><g fill="#88c0c2"><path d="m1415.75 491.82a2.33 2.33 0 0 1 -1.51-.55 133.75 133.75 0 0 0 -27.8-18.36 2.34 2.34 0 0 1 1.92-4.27 136.28 136.28 0 0 1 28.9 19.06 2.34 2.34 0 0 1 -1.51 4.12z"/><path d="m1423.22 503.69a2 2 0 0 1 -1.72-1l-4.77-7.74a2 2 0 1 1 3.43-2.12l4.77 7.74a2 2 0 0 1 -1.71 3.12z"/><path d="m1416.58 505.49a2 2 0 0 1 -2-1.83l-.91-9.66a2 2 0 1 1 4-.38l.91 9.66a2 2 0 0 1 -1.82 2.19h-.19z"/><path d="m1427.8 498.58a2 2 0 0 1 -1.07-.31l-8.22-5.15a2 2 0 1 1 2.14-3.41l8.22 5.15a2 2 0 0 1 -1.07 3.72z"/><circle cx="1416.4" cy="491.15" r="3.8" transform="matrix(.85126935 -.52472898 .52472898 .85126935 -47.03 816.4)"/><path d="m1387.41 470.77v30.57s-28.63-6.67-53.64 17.79c-25-24.46-53.64-17.79-53.64-17.79v-30.57l53.64 4.72z"/><path d="m1330.68 490.35-83-26.76a2.38 2.38 0 0 1 0-4.53l83-26.76a10.05 10.05 0 0 1 6.17 0l83 26.76a2.38 2.38 0 0 1 0 4.53l-83 26.76a10.05 10.05 0 0 1 -6.17 0z"/></g><path d="m1333.77 492.83a12 12 0 0 1 -3.7-.58l-45.07-14.54a2 2 0 1 1 1.23-3.81l45.09 14.54a8 8 0 0 0 4.94 0l45.82-14.77a2 2 0 1 1 1.23 3.81l-45.82 14.77a12 12 0 0 1 -3.72.58z" fill="#fff"/><path d="m511.21 151.54a19.63 19.63 0 0 0 10.15-10.15l2.61-6 2.61 6a19.63 19.63 0 0 0 10.15 10.15l6 2.61-6 2.61a19.63 19.63 0 0 0 -10.15 10.15l-2.61 6-2.61-6a19.63 19.63 0 0 0 -10.15-10.15l-6-2.61z" fill="#88c0c2"/><path d="m1276.69 947.54a15 15 0 0 0 7.77-7.77l2-4.58 2 4.58a15 15 0 0 0 7.77 7.77l4.58 2-4.58 2a15 15 0 0 0 -7.77 7.77l-2 4.58-2-4.58a15 15 0 0 0 -7.77-7.77l-4.58-2z" fill="#de9244"/><path d="m1338.65 1030.69a23.75 23.75 0 0 0 12.29-12.29l3.16-7.25 3.16 7.25a23.75 23.75 0 0 0 12.29 12.29l7.25 3.16-7.25 3.16a23.75 23.75 0 0 0 -12.29 12.29l-3.16 7.25-3.16-7.25a23.75 23.75 0 0 0 -12.29-12.29l-7.25-3.16z" fill="#88c0c2"/><path d="m879.61 158.71a33.45 33.45 0 0 0 17.31-17.31l4.45-10.2 4.45 10.2a33.45 33.45 0 0 0 17.31 17.31l10.2 4.45-10.2 4.45a33.45 33.45 0 0 0 -17.31 17.31l-4.45 10.2-4.45-10.2a33.45 33.45 0 0 0 -17.31-17.31l-10.2-4.45z" fill="#de9244"/><path d="m1212.08 324.35a25.16 25.16 0 0 0 13-13l3.34-7.67 3.34 7.67a25.16 25.16 0 0 0 13 13l7.67 3.34-7.63 3.31a25.16 25.16 0 0 0 -13 13l-3.34 7.67-3.34-7.67a25.16 25.16 0 0 0 -13-13l-7.67-3.34z" fill="#de9244"/><circle cx="832.86" cy="396.32" fill="#88c0c2" r="11.42"/><circle cx="568.98" cy="984.44" fill="#88c0c2" r="11.42"/><path d="m850.72 989.54-62.33-65.54a7.88 7.88 0 0 0 -13.56 6l6.88 90.16a7.88 7.88 0 0 0 13.75 4.63l14-15.78 17.62 39.63a7.88 7.88 0 0 0 10.4 4 7.88 7.88 0 0 0 4-10.4l-17.62-39.63 21.1.17a7.88 7.88 0 0 0 5.76-13.24z" fill="#fff"/><path d="m834.29 1056.16a10.67 10.67 0 0 1 -9.75-6.33l-15.87-35.69-11.14 12.55a10.65 10.65 0 0 1 -18.59-6.26l-6.88-90.16a10.65 10.65 0 0 1 18.34-8.15l62.33 65.5a10.65 10.65 0 0 1 -7.71 18h-.09l-16.78-.14 15.85 35.7a10.65 10.65 0 0 1 -9.71 14.98zm-24.83-49.86a2.84 2.84 0 0 1 .42 0 2.78 2.78 0 0 1 2.11 1.62l17.62 39.63a5.1 5.1 0 0 0 9.32-4.15l-17.62-39.63a2.78 2.78 0 0 1 2.54-3.9l21.1.17a5.1 5.1 0 0 0 3.69-8.62l-62.26-65.42a5.1 5.1 0 0 0 -8.78 3.9l6.88 90.16a5.1 5.1 0 0 0 8.9 3l14-15.78a2.78 2.78 0 0 1 2.08-.98z" fill="#262424"/><path d="m1263.91 805.32a117 117 0 0 1 -12-.69 2.5 2.5 0 0 1 .54-5 112 112 0 0 0 11.45.66 2.5 2.5 0 0 1 .01 5.03zm11.67-.66a2.5 2.5 0 0 1 -.3-5 76.24 76.24 0 0 0 11.1-2.18 2.5 2.5 0 0 1 1.34 4.82 81.12 81.12 0 0 1 -11.83 2.33zm-35-1.76a2.54 2.54 0 0 1 -.43 0c-3.86-.68-7.71-1.23-11.45-1.64a2.5 2.5 0 0 1 .55-5c3.84.42 7.8 1 11.76 1.68a2.5 2.5 0 0 1 -.39 4.95zm-35-2.49a2.5 2.5 0 0 1 -.11-5c3.89-.18 7.93-.19 11.93 0a2.5 2.5 0 0 1 2.41 2.59 2.53 2.53 0 0 1 -2.59 2.41c-3.86-.14-7.77-.13-11.52 0zm92.42-2.06a2.5 2.5 0 0 1 -1.07-4.76 62.67 62.67 0 0 0 9.69-5.69 2.5 2.5 0 0 1 2.91 4.07 67.68 67.68 0 0 1 -10.47 6.15 2.49 2.49 0 0 1 -1.06.23zm19-13.55a2.5 2.5 0 0 1 -1.79-4.25 72.62 72.62 0 0 0 7.25-8.7 2.5 2.5 0 1 1 4.07 2.9 77.38 77.38 0 0 1 -7.75 9.3 2.49 2.49 0 0 1 -1.78.75zm13.61-19a2.5 2.5 0 0 1 -2.21-3.66 102.89 102.89 0 0 0 4.74-10.42 2.5 2.5 0 0 1 4.66 1.82 108 108 0 0 1 -5 10.93 2.5 2.5 0 0 1 -2.23 1.34zm8.59-21.8a2.47 2.47 0 0 1 -.69-.1 2.5 2.5 0 0 1 -1.72-3.09c1-3.59 1.94-7.36 2.72-11.22a2.5 2.5 0 0 1 4.9 1c-.8 4-1.75 7.89-2.81 11.6a2.5 2.5 0 0 1 -2.44 1.81zm4.68-23h-.33a2.5 2.5 0 0 1 -2.16-2.8c.49-3.78.87-7.66 1.12-11.54a2.5 2.5 0 1 1 5 .33c-.26 4-.65 8-1.15 11.86a2.5 2.5 0 0 1 -2.52 2.15zm1.51-23.45a2.5 2.5 0 0 1 -2.5-2.49c0-3-.11-4.77-.11-4.78a2.5 2.5 0 0 1 5-.3c0 .08.11 1.9.12 5.07a2.5 2.5 0 0 1 -2.49 2.51z" fill="#262424"/><path d="m974.06 1146.46c-3 0-6-.09-9-.27a2.5 2.5 0 1 1 .3-5c2.88.17 5.82.26 8.73.26h2.55.28a2.5 2.5 0 0 1 .06 5h-.27c-.9 0-1.8.01-2.65.01zm14.52-.74a2.5 2.5 0 0 1 -.26-5c3.84-.41 7.66-1 11.34-1.74a2.5 2.5 0 1 1 1 4.9c-3.83.78-7.8 1.39-11.8 1.81h-.27zm-35-.71h-.36c-3.93-.56-7.87-1.3-11.72-2.2a2.5 2.5 0 1 1 1.13-4.87c3.71.86 7.51 1.57 11.3 2.12a2.5 2.5 0 0 1 -.4 4.94zm58-4a2.5 2.5 0 0 1 -.74-4.89 107.46 107.46 0 0 0 10.72-4 2.5 2.5 0 1 1 2 4.59 112.51 112.51 0 0 1 -11.22 4.17 2.51 2.51 0 0 1 -.86.12zm-80.75-1.32a2.5 2.5 0 0 1 -.77-.12c-3.76-1.23-7.52-2.63-11.17-4.17a2.5 2.5 0 0 1 1.95-4.61c3.52 1.49 7.14 2.84 10.77 4a2.5 2.5 0 0 1 -.88 4.92zm102.2-8a2.5 2.5 0 0 1 -1.24-4.67 106 106 0 0 0 9.61-6.2 2.5 2.5 0 1 1 2.93 4.05 111.26 111.26 0 0 1 -10.07 6.49 2.49 2.49 0 0 1 -1.33.35zm-123.77-1.12a2.49 2.49 0 0 1 -1.16-.29c-3.48-1.83-6.95-3.84-10.32-6a2.5 2.5 0 0 1 2.68-4.22c3.26 2.07 6.61 4 10 5.78a2.5 2.5 0 0 1 -1.29 4.75zm-19.89-12.57a2.49 2.49 0 0 1 -1.5-.5c-3.14-2.35-6.26-4.87-9.27-7.49a2.5 2.5 0 1 1 3.28-3.77c2.92 2.54 5.94 5 9 7.26a2.5 2.5 0 0 1 -1.51 4.5zm162.51 0a2.5 2.5 0 0 1 -1.67-4.36c2.8-2.52 5.54-5.23 8.14-8.08a2.5 2.5 0 1 1 3.69 3.37c-2.71 3-5.57 5.8-8.49 8.43a2.49 2.49 0 0 1 -1.66.64zm-180.22-15.33a2.49 2.49 0 0 1 -1.77-.73c-2.77-2.77-5.51-5.69-8.14-8.68a2.5 2.5 0 1 1 3.76-3.3c2.56 2.91 5.22 5.75 7.91 8.44a2.5 2.5 0 0 1 -1.75 4.28zm196-1.93a2.5 2.5 0 0 1 -2-4c2.27-3 4.47-6.19 6.53-9.47a2.5 2.5 0 0 1 4.23 2.66c-2.13 3.39-4.41 6.7-6.77 9.82a2.5 2.5 0 0 1 -1.97.99zm-211.5-15.69a2.5 2.5 0 0 1 -2-1c-2.42-3.13-4.77-6.37-7-9.64a2.5 2.5 0 0 1 4.14-2.8c2.15 3.18 4.44 6.33 6.8 9.38a2.5 2.5 0 0 1 -1.92 4.06zm224-4.12a2.5 2.5 0 0 1 -2.21-3.66c1.75-3.35 3.42-6.85 5-10.42a2.5 2.5 0 1 1 4.59 2c-1.6 3.68-3.32 7.29-5.13 10.75a2.5 2.5 0 0 1 -2.24 1.33zm-237.16-15.32a2.5 2.5 0 0 1 -2.16-1.23 120.3 120.3 0 0 1 -5.67-10.65 2.5 2.5 0 0 1 4.56-2s1.8 4 5.41 10.16a2.5 2.5 0 0 1 -2.14 3.72zm246.49-6.16a2.5 2.5 0 0 1 -2.36-3.34c1.28-3.59 2.46-7.29 3.53-11a2.5 2.5 0 0 1 4.81 1.38c-1.09 3.82-2.31 7.63-3.62 11.31a2.5 2.5 0 0 1 -2.34 1.65zm6.46-22.53a2.56 2.56 0 0 1 -.55-.06 2.5 2.5 0 0 1 -1.9-3c.83-3.72 1.57-7.55 2.2-11.38a2.5 2.5 0 0 1 4.93.81c-.64 3.92-1.4 7.84-2.25 11.65a2.5 2.5 0 0 1 -2.38 1.98zm3.81-23.14h-.27a2.5 2.5 0 0 1 -2.22-2.75c.42-3.83.73-7.72.94-11.56a2.5 2.5 0 1 1 5 .27c-.21 3.93-.54 7.91-1 11.83a2.5 2.5 0 0 1 -2.43 2.21zm1.28-23.42a2.5 2.5 0 0 1 -2.5-2.5v-.27c0-3.78-.1-7.58-.3-11.32a2.5 2.5 0 1 1 5-.26c.2 3.82.3 7.72.3 11.58v.27a2.5 2.5 0 0 1 -2.48 2.5zm-1.23-23.41a2.5 2.5 0 0 1 -2.49-2.27c-.37-3.94-.66-7.91-.86-11.8a2.5 2.5 0 0 1 5-.26c.19 3.82.48 7.72.84 11.59a2.5 2.5 0 0 1 -2.25 2.72h-.24zm-1.19-23.42a2.5 2.5 0 0 1 -2.5-2.48q0-.85 0-1.69c0-3.4.07-6.81.21-10.15a2.5 2.5 0 0 1 2.5-2.4h.1a2.5 2.5 0 0 1 2.4 2.6c-.13 3.27-.2 6.62-.2 10v1.66a2.5 2.5 0 0 1 -2.48 2.52zm1-23.43h-.23a2.5 2.5 0 0 1 -2.26-2.72c.36-4 .84-7.94 1.4-11.78a2.5 2.5 0 0 1 4.95.73c-.55 3.75-1 7.62-1.37 11.51a2.5 2.5 0 0 1 -2.5 2.26z" fill="#262424"/><path d="m356.84 1070.29a43.39 43.39 0 1 1 16.53-3.29 43.19 43.19 0 0 1 -16.53 3.29zm-.11-81.23a37.84 37.84 0 1 0 14.51 72.81 37.84 37.84 0 0 0 -14.51-72.82z" fill="#262424"/><path d="m369.91 1067.67c-4.28 0-9.22-2.79-14.27-8.15-5.86-6.21-11.44-15.32-15.71-25.65-8-19.44-10.68-42.54.27-47.07 5-2.05 11.26.6 17.74 7.47 5.86 6.21 11.44 15.32 15.71 25.65 8 19.44 10.68 42.54-.27 47.07a9 9 0 0 1 -3.47.68zm-26.19-76a3.63 3.63 0 0 0 -1.4.26c-5.54 2.29-5.54 19.81 2.74 39.82 4 9.72 9.21 18.23 14.62 24 4.65 4.93 9 7.23 11.57 6.15 5.54-2.29 5.54-19.8-2.74-39.82-4-9.72-9.21-18.23-14.62-24-3.89-4.13-7.56-6.42-10.18-6.42z" fill="#262424"/><path d="m319.28 1045.18a2.78 2.78 0 0 1 -1.06-5.34l75-31a2.78 2.78 0 0 1 2.12 5.13l-75 31a2.77 2.77 0 0 1 -1.06.21z" fill="#262424"/><circle cx="1163.29" cy="147.91" fill="#88c0c2" r="15.25"/><circle cx="1232.4" cy="147.91" fill="#88c0c2" r="15.25"/><circle cx="1301.51" cy="147.91" fill="#88c0c2" r="15.25"/><path d="m1307.32 1280.53h-986.93a2.78 2.78 0 1 1 0-5.55h986.93a2.78 2.78 0 1 1 0 5.55z" fill="#262424"/><path d="m1027.26 1318.77h-426.81a2.78 2.78 0 1 1 0-5.55h426.81a2.78 2.78 0 0 1 0 5.55z" fill="#262424"/><path d="m551.76 1318.77h-95.88a2.78 2.78 0 1 1 0-5.55h95.88a2.78 2.78 0 1 1 0 5.55z" fill="#262424"/><path d="m1181.29 1318.77h-63.76a2.78 2.78 0 0 1 0-5.55h63.76a2.78 2.78 0 0 1 0 5.55z" fill="#262424"/></svg>