<svg viewBox="0 0 1600 1400" xmlns="http://www.w3.org/2000/svg"><path d="m1284.69 872.99 32.74-303.87h-39.45l-32.74 303.87z" fill="#fff"/><path d="m1284.69 876h-39.45a3 3 0 0 1 -3-3.32l32.76-303.88a3 3 0 0 1 3-2.68h39.45a3 3 0 0 1 3 3.32l-32.74 303.87a3 3 0 0 1 -3.02 2.69zm-36.11-6h33.42l32.09-297.87h-33.42z" fill="#262424"/><path d="m1267.2 872.99 32.74-303.87h-39.46l-32.73 303.87z" fill="#fff"/><path d="m1267.2 876h-39.45a3 3 0 0 1 -3-3.32l32.75-303.88a3 3 0 0 1 3-2.68h39.45a3 3 0 0 1 3 3.32l-32.74 303.87a3 3 0 0 1 -3.01 2.69zm-36.11-6h33.42l32.09-297.87h-33.42z" fill="#262424"/><path d="m1402.05 598h-218.05c-11.4 0-19.64-9.24-18.41-20.64l19-176c1.23-11.4 11.46-20.64 22.86-20.64h218c11.4 0 19.64 9.24 18.41 20.64l-19 176c-1.17 11.4-11.41 20.64-22.81 20.64z" fill="#fff"/><path d="m1402.05 601h-218.05a21.18 21.18 0 0 1 -21.4-24l19-176c1.39-12.86 13-23.32 25.84-23.32h218a21.18 21.18 0 0 1 21.4 24l-19 176c-1.33 12.86-12.92 23.32-25.79 23.32zm-194.62-217.26a20.52 20.52 0 0 0 -19.88 18l-19 176a15.63 15.63 0 0 0 3.76 12.31 15.42 15.42 0 0 0 11.67 5h218a20.52 20.52 0 0 0 19.88-18l19-176a15.63 15.63 0 0 0 -3.76-12.31 15.42 15.42 0 0 0 -11.67-5z" fill="#262424"/><path d="m1355.24 598h-218c-11.4 0-19.64-9.24-18.41-20.64l19-176c1.23-11.4 11.46-20.64 22.86-20.64h218c11.4 0 19.64 9.24 18.41 20.64l-19 176c-1.23 11.4-11.46 20.64-22.86 20.64z" fill="#88c0c2"/><path d="m1355.24 601h-218a21.18 21.18 0 0 1 -21.4-24l19-176c1.39-12.86 13-23.32 25.84-23.32h218a21.18 21.18 0 0 1 21.4 24l-19 176c-1.38 12.86-12.97 23.32-25.84 23.32zm-194.62-217.26a20.52 20.52 0 0 0 -19.88 18l-19 176a15.63 15.63 0 0 0 3.76 12.31 15.42 15.42 0 0 0 11.67 5h218a20.52 20.52 0 0 0 19.88-18l19-176a15.63 15.63 0 0 0 -3.76-12.31 15.42 15.42 0 0 0 -11.67-5z" fill="#88c0c2"/><path d="m1126.4 943h44.6v100h-44.6z" fill="#fff"/><path d="m1171 1046h-44.6a3 3 0 0 1 -3-3v-100a3 3 0 0 1 3-3h44.6a3 3 0 0 1 3 3v100a3 3 0 0 1 -3 3zm-41.6-6h38.6v-94h-38.6z" fill="#262424"/><path d="m1078 913h141.38a0 0 0 0 1 0 0 38 38 0 0 1 -38 38h-65.38a38 38 0 0 1 -38-38 0 0 0 0 1 0 0z" fill="#88c0c2"/><path d="m1126.48 1030.15h44.44a13.76 13.76 0 0 1 13.76 13.76v43.58a0 0 0 0 1 0 0h-72a0 0 0 0 1 0 0v-43.58a13.76 13.76 0 0 1 13.76-13.76z" fill="#88c0c2"/><path d="m1148.7 1087.5v48.5l-169.88 75.92h-32.82a35.93 35.93 0 0 1 16.85-30.44l149.87-93.94h36z" fill="#fff"/><path d="m978.82 1214.88h-32.82a3 3 0 0 1 -3-3 38.72 38.72 0 0 1 18.25-33l149.87-93.88a3 3 0 0 1 1.59-.46h36a3 3 0 0 1 3 3v48.46a3 3 0 0 1 -1.78 2.74l-169.93 75.88a3 3 0 0 1 -1.18.26zm-29.69-6h29l167.57-74.88v-43.5h-32.12l-149.14 93.5a32.73 32.73 0 0 0 -15.31 24.88z" fill="#262424"/><circle cx="960.66" cy="1253.84" fill="#262424" r="28.17"/><circle cx="960.66" cy="1253.84" fill="#fff" r="9.17"/><path d="m1148.7 1087.5v48.5l169.88 75.92h32.82a35.93 35.93 0 0 0 -16.85-30.44l-149.87-93.94h-36z" fill="#fff"/><path d="m1351.4 1214.88h-32.82a3 3 0 0 1 -1.22-.26l-169.88-75.92a3 3 0 0 1 -1.78-2.74v-48.46a3 3 0 0 1 3-3h36a3 3 0 0 1 1.59.46l149.87 93.94a38.72 38.72 0 0 1 18.25 33 3 3 0 0 1 -3.01 2.98zm-32.18-6h29a32.73 32.73 0 0 0 -15.22-24.88l-149.14-93.48h-32.16v43.48z" fill="#262424"/><circle cx="1336.73" cy="1253.84" fill="#262424" r="28.17"/><circle cx="1336.73" cy="1253.84" fill="#fff" r="9.17"/><path d="m1167.39 1211.88h-37.39l-17.28-124.38h71.96z" fill="#fff"/><path d="m1167.4 1214.88h-37.4a3 3 0 0 1 -3-2.59l-17.28-124.38a3 3 0 0 1 3-3.41h72a3 3 0 0 1 3 3.41l-17.28 124.38a3 3 0 0 1 -3.04 2.59zm-34.78-6h32.17l16.45-118.38h-65.07z" fill="#262424"/><rect fill="#262424" height="56.34" rx="9.67" width="42.5" x="1128.5" y="1225.67"/><rect fill="#fff" height="56" rx="28" width="229" x="957.67" y="857"/><path d="m1158.67 916h-173a31 31 0 0 1 0-62h173a31 31 0 0 1 0 62zm-173-56a25 25 0 0 0 0 50h173a25 25 0 0 0 0-50z" fill="#262424"/><rect fill="#fff" height="56" rx="28" width="205.73" x="1134" y="857"/><path d="m1311.73 916h-149.73a31 31 0 0 1 0-62h149.73a31 31 0 1 1 0 62zm-149.73-56a25 25 0 0 0 0 50h149.73a25 25 0 1 0 0-50z" fill="#262424"/><path d="m646.89 569v16h-131.73v-16l24.5-57.15h96.06l-24.5 57.15z" fill="#fff"/><path d="m646.89 588h-131.73a3 3 0 0 1 -3-3v-16a3 3 0 0 1 .24-1.18l24.5-57.15a3 3 0 0 1 2.76-1.82h96.06a3 3 0 0 1 2.76 4.18l-22.71 53h31.12a3 3 0 0 1 3 3v16a3 3 0 0 1 -3 2.97zm-128.73-6h125.73v-10h-32.67a3 3 0 0 1 -2.76-4.18l22.71-53h-89.53l-23.48 54.77z" fill="#262424"/><path d="m567.41 569h79.48v16h-79.48z" fill="#fff"/><path d="m646.89 588h-79.48a3 3 0 0 1 -3-3v-16a3 3 0 0 1 3-3h79.48a3 3 0 0 1 3 3v16a3 3 0 0 1 -3 3zm-76.48-6h73.48v-10h-73.48z" fill="#262424"/><path d="m567.41 569v16h-52.25v-16l24.5-57.15h16.58l-24.5 57.15z" fill="#fff"/><path d="m567.41 588h-52.25a3 3 0 0 1 -3-3v-16a3 3 0 0 1 .24-1.18l24.5-57.15a3 3 0 0 1 2.76-1.82h16.58a3 3 0 0 1 2.76 4.15l-22.71 53h31.12a3 3 0 0 1 3 3v16a3 3 0 0 1 -3 3zm-49.25-6h46.25v-10h-32.67a3 3 0 0 1 -2.76-4.18l22.71-53h-10.05l-23.48 54.77z" fill="#262424"/><path d="m769.58 531h-393.68a12.11 12.11 0 0 1 -11.77-10.66l-25.59-246a9.43 9.43 0 0 1 9.55-10.66h393.68a12.11 12.11 0 0 1 11.77 10.66l25.59 246a9.43 9.43 0 0 1 -9.55 10.66z" fill="#de9244"/><path d="m786.75 531h-393.68a12.11 12.11 0 0 1 -11.77-10.66l-25.59-246a9.43 9.43 0 0 1 9.55-10.66h393.68a12.11 12.11 0 0 1 11.77 10.66l25.59 246a9.43 9.43 0 0 1 -9.55 10.66z" fill="#88c0c2"/><path d="m774.17 511.85h-372.5a6.34 6.34 0 0 1 -6.16-5.58l-22.67-217.85a4.94 4.94 0 0 1 5-5.58h372.5a6.34 6.34 0 0 1 6.16 5.58l22.67 217.85a4.94 4.94 0 0 1 -5 5.58z" fill="#fff"/><path d="m774.17 514.85h-372.5a9.3 9.3 0 0 1 -9.15-8.27l-22.67-217.85a7.94 7.94 0 0 1 8-8.89h372.5a9.3 9.3 0 0 1 9.15 8.27l22.65 217.89a7.94 7.94 0 0 1 -7.98 8.85zm-396.33-229a2 2 0 0 0 -1.54.63 2.08 2.08 0 0 0 -.48 1.64l22.67 217.88a3.37 3.37 0 0 0 3.18 2.89h372.5a2 2 0 0 0 1.54-.63 2.08 2.08 0 0 0 .48-1.64l-22.67-217.89a3.37 3.37 0 0 0 -3.18-2.89h-372.5z" fill="#262424"/><path d="m634.42 461h-213a6.34 6.34 0 0 1 -6.16-5.58l-13.64-130.84a4.94 4.94 0 0 1 5-5.58h213a6.34 6.34 0 0 1 6.16 5.58l13.61 130.85a4.94 4.94 0 0 1 -4.97 5.57z" fill="#de9244"/><path d="m627.13 448.42h-201.06l-12.16-116.82h201.06z" fill="#fff"/><path d="m627.13 451.42h-201.06a3 3 0 0 1 -3-2.69l-12.14-116.82a3 3 0 0 1 3-3.31h201.07a3 3 0 0 1 3 2.69l12.15 116.82a3 3 0 0 1 -3.02 3.31zm-198.35-6h195l-11.51-110.82h-195z" fill="#262424"/><path d="m705.45 381.68s26.27 9.84 41.79 130.17h-32z" fill="#88c0c2"/><path d="m644.81 322.19s-5.74 18.61 5.09 39.74h38.38s.51-20.25-3.63-34.88-39.84-4.86-39.84-4.86z" fill="#262424"/><path d="m595.38 418-20.65-36.72a2.6 2.6 0 0 0 -3-1.18 2.15 2.15 0 0 0 -1.25 2.8l3.52 10.4-5.19 6c-3 3.41-2.39 8.83 1.27 12.24l18.38 13.5z" fill="#fff"/><path d="m588.5 428.05a3 3 0 0 1 -1.77-.58l-18.39-13.47-.27-.22c-4.87-4.54-5.52-11.74-1.49-16.4l4.06-4.7-3-8.77a5.14 5.14 0 0 1 3.08-6.6 5.59 5.59 0 0 1 6.58 2.44l.05.09 20.65 36.69a3 3 0 0 1 -.47 3.56l-6.87 7.05a3 3 0 0 1 -2.16.91zm-16.5-18.8 16.13 11.84 3.49-3.58-15.76-28 1 2.83a3 3 0 0 1 -.57 2.94l-5.19 6c-1.83 2.12-1.41 5.72.9 7.97z" fill="#262424"/><path d="m635.7 381.68c-7 6.33-15.28 21.06-25 45.5l-14.61-15.5-14.19 12.75s19.32 53.5 35.82 53.5 35.28-37.84 35.28-37.84z" fill="#88c0c2"/><path d="m613.33 465a3 3 0 0 1 -2.89-2.2 85.49 85.49 0 0 1 -2.44-31.56 3 3 0 0 1 5.94.85 80.86 80.86 0 0 0 2.26 29.11 3 3 0 0 1 -2.87 3.8z" fill="#262424"/><path d="m722.83 511.85h-77.41c-10.93-63.34-9.71-130.17-9.71-130.17 12.51-9.5 33.49-13.33 33.49-13.33s21.77 3.83 36.26 13.33c-.01 0 15.12 66.83 17.37 130.17z" fill="#88c0c2"/><path d="m638.47 458.51a3 3 0 0 1 -3-2.76c-2.36-28.89-2.78-53.59-2.82-65.74a3 3 0 0 1 3-3 3 3 0 0 1 3 3c0 12.06.46 36.58 2.8 65.27a3 3 0 0 1 -2.75 3.23h-.25z" fill="#262424"/><path d="m722.34 504.36a3 3 0 0 1 -3-2.83c-2.63-46.53-11.41-93.07-15.06-110.92a3 3 0 1 1 5.88-1.2c3.68 18 12.53 64.86 15.18 111.79a3 3 0 0 1 -2.83 3.16z" fill="#262424"/><path d="m670.53 381.25c9.36 0 13.45 5 13.45 5 1.71-13.44-7.37-22.29-15.25-22.29s-15.12 8.85-10.61 22.29c0-.03 3.05-5 12.41-5z" fill="#de9244"/><path d="m671.96 352.93 1.76 16.87-3.92 4.38-4.83-4.38-1.76-16.87z" fill="#fff"/><path d="m669.8 377.18a3 3 0 0 1 -2-.78l-4.8-4.4a3 3 0 0 1 -1-1.91l-1.76-16.87a3 3 0 0 1 3-3.31h8.76a3 3 0 0 1 3 2.69l1.76 16.87a3 3 0 0 1 -.75 2.31l-4.01 4.4a3 3 0 0 1 -2.08 1zm-2-8.83 1.75 1.58 1-1.14-1.34-12.86h-2.72z" fill="#262424"/><path d="m668.08 357.68a15.77 15.77 0 0 1 -15.32-13.87l-.94-9a12.28 12.28 0 0 1 12.43-13.87 15.77 15.77 0 0 1 15.32 13.87l.94 9a12.28 12.28 0 0 1 -12.43 13.87z" fill="#fff"/><path d="m668.08 360.68a18.86 18.86 0 0 1 -18.3-16.56l-.94-9a15.27 15.27 0 0 1 15.42-17.19 18.86 18.86 0 0 1 18.3 16.56l.94 9a15.27 15.27 0 0 1 -15.42 17.19zm-3.82-36.75a9.44 9.44 0 0 0 -7.14 3 9.57 9.57 0 0 0 -2.31 7.52l.94 9a12.72 12.72 0 0 0 12.33 11.19 9.44 9.44 0 0 0 7.14-3 9.57 9.57 0 0 0 2.31-7.52l-.94-9a12.72 12.72 0 0 0 -12.33-11.19z" fill="#262424"/><path d="m648.25 336.43s21.25 5.57 27.25-10.43c0 0-2 14.07 4.63 14.07 0 0 5.25-3.62 4.52-13s-12.65-23.88-29.12-16.77c-19.14 8.25-7.28 26.13-7.28 26.13z" fill="#262424"/><path d="m736.39 677.85h24.19v604.15h-24.19z" fill="#de9244"/><path d="m866.81 677.85h24.19v604.15h-24.19z" fill="#de9244"/><path d="m866.81 677.85v604.15h-48.39v-89.03h-82.03v89.03h-48.39v-604.15h48.39v466.73h82.03v-466.73z" fill="#de9244"/><path d="m736.39 1280a2.5 2.5 0 0 1 -2.5-2.5v-84.5a2.5 2.5 0 0 1 5 0v84.53a2.5 2.5 0 0 1 -2.5 2.47z" fill="#262424"/><path d="m866.81 1278a2.5 2.5 0 0 1 -2.5-2.5v-597.65a2.5 2.5 0 0 1 5 0v597.65a2.5 2.5 0 0 1 -2.5 2.5z" fill="#262424"/><path d="m736.39 1147.08a2.5 2.5 0 0 1 -2.5-2.5v-466.73a2.5 2.5 0 0 1 5 0v466.73a2.5 2.5 0 0 1 -2.5 2.5z" fill="#262424"/><path d="m493.03 1144.58h325.39v48.39h-325.39z" fill="#de9244"/><path d="m756.21 1195.47h-62.21a2.5 2.5 0 1 1 0-5h62.21a2.5 2.5 0 0 1 0 5z" fill="#262424"/><path d="m818.42 1191.17a2.5 2.5 0 0 1 -2.5-2.5v-39a2.5 2.5 0 0 1 5 0v39a2.5 2.5 0 0 1 -2.5 2.5z" fill="#262424"/><path d="m756.46 1147.08h-62a2.5 2.5 0 0 1 0-5h62a2.5 2.5 0 1 1 0 5z" fill="#262424"/><path d="m411 677.85h24.19v604.15h-24.19z" fill="#de9244"/><path d="m541.42 677.85h24.19v604.15h-24.19z" fill="#de9244"/><path d="m565.61 1191.17a2.5 2.5 0 0 1 -2.5-2.5v-38.92a2.5 2.5 0 0 1 5 0v38.92a2.5 2.5 0 0 1 -2.5 2.5z" fill="#262424"/><path d="m541.42 677.85v604.15h-48.39v-89.03h-82.03v89.03h-48.39v-604.15h48.39v466.73h82.03v-466.73z" fill="#de9244"/><path d="m411 1278a2.5 2.5 0 0 1 -2.5-2.5v-82.5a2.5 2.5 0 0 1 2.5-2.5h20.5a2.5 2.5 0 1 1 0 5h-18v80a2.5 2.5 0 0 1 -2.5 2.5z" fill="#262424"/><path d="m541.42 1280a2.5 2.5 0 0 1 -2.5-2.5v-597.15h-45.92a2.5 2.5 0 0 1 0-5h48.39a2.5 2.5 0 0 1 2.5 2.5v599.65a2.5 2.5 0 0 1 -2.47 2.5z" fill="#262424"/><path d="m431.5 1147.08h-20.5a2.5 2.5 0 0 1 -2.5-2.5v-466.73a2.5 2.5 0 1 1 5 0v464.23h18a2.5 2.5 0 1 1 0 5z" fill="#262424"/><path d="m330.61 585h200.46v53.93h-200.46z" fill="#88c0c2"/><path d="m531.07 585h391.93v53.93h-391.93z" fill="#88c0c2" transform="matrix(-1 0 0 -1 1454.07 1223.93)"/><path d="m531.07 641.43a2.5 2.5 0 0 1 -2.5-2.5v-49.45a2.5 2.5 0 0 1 5 0v49.45a2.5 2.5 0 0 1 -2.5 2.5z" fill="#262424"/><path d="m362.61 638.93h178.8v38.93h-178.8z" fill="#fff"/><path d="m541.42 680.85h-178.81a3 3 0 0 1 -3-3v-38.92a3 3 0 0 1 3-3h178.8a3 3 0 0 1 3 3v38.93a3 3 0 0 1 -2.99 2.99zm-175.8-6h172.8v-32.92h-172.81v32.93z" fill="#262424"/><path d="m541.42 638.93h349.58v38.93h-349.58z" fill="#fff" transform="matrix(-1 0 0 -1 1432.42 1316.78)"/><path d="m891 680.85h-349.58a3 3 0 0 1 -3-3v-38.92a3 3 0 0 1 3-3h349.58a3 3 0 0 1 3 3v38.93a3 3 0 0 1 -3 2.99zm-346.58-6h343.58v-32.92h-343.58v32.93z" fill="#262424"/><path d="m750.88 1093.84-7.3 78.08 30.56 1.35 14.61-78.21z" fill="#fff"/><path d="m774.14 1176.27h-.14l-30.56-1.36a3 3 0 0 1 -2.85-3.28l7.3-78.08a3 3 0 0 1 3.08-2.72l37.86 1.22a3 3 0 0 1 2.85 3.55l-14.61 78.21a3 3 0 0 1 -2.93 2.46zm-27.28-7.21 24.81 1.1 13.49-72.21-31.55-1z" fill="#262424"/><path d="m621.83 1268.39v13.61h168.29s.55-7.11 1.07-19.06c1-23.51 2.26-63-.87-106.72l-53.71-8.61s-46.1 48-87.12 85.3c-4.26 3.88-8.74 7.65-13.46 11.23-9.03 6.86-14.2 15.4-14.2 24.25z" fill="#88c0c2"/><path d="m701.32 1234.44a3 3 0 0 1 -2.16-5.08c35.89-37.21 52-68 52.18-68.31a3 3 0 0 1 5.33 2.75c-.66 1.28-16.63 31.82-53.19 69.72a3 3 0 0 1 -2.16.92z" fill="#262424"/><ellipse cx="763.48" cy="1219.67" fill="#fff" rx="14.94" ry="16.63"/><path d="m763.48 1239.3c-9.89 0-17.94-8.81-17.94-19.63s8-19.63 17.94-19.63 17.94 8.81 17.94 19.63-8.05 19.63-17.94 19.63zm0-33.27c-6.58 0-11.94 6.12-11.94 13.63s5.36 13.63 11.94 13.63 11.94-6.12 11.94-13.63-5.35-13.66-11.94-13.66z" fill="#262424"/><path d="m621.83 1268.39v13.61h168.29s.55-7.11 1.07-19.06h-88.84s-5.68-39.58-52.86-30c-4.26 3.88-8.74 7.65-13.46 11.23-9.03 6.83-14.2 15.37-14.2 24.22z" fill="#fff"/><path d="m790.13 1285h-168.3a3 3 0 0 1 -3-3v-13.62c0-9.64 5.46-19.1 15.38-26.63 4.43-3.36 8.89-7.08 13.26-11.06a3 3 0 0 1 1.42-.72c16.27-3.3 29.67-1.34 39.83 5.82 10.87 7.66 14.8 19.07 16.06 24.14h86.41a3 3 0 0 1 3 3.13c-.52 11.86-1.07 19.08-1.08 19.15a3 3 0 0 1 -2.98 2.79zm-165.29-6h162.49c.18-2.66.45-7.14.73-13.06h-85.7a3 3 0 0 1 -3-2.57c0-.13-2.25-14.34-14.17-22.71-8.58-6-20.12-7.69-34.32-5-4.3 3.88-8.69 7.53-13 10.84-8.39 6.36-13 14.12-13 21.85v10.65z" fill="#262424"/><path d="m1104.11 713.77s-17.36 99.12-24.18 109.23c-21.51 31.89-239.29 88.39-239.29 88.39l-29.44 214.2-88-9.59s-2.79-132.48 1.37-212.92c1.62-31.31 4.28-54.75 8.58-59.41 3.54-3.85 17.48-13 36.91-24.81 66-40.15 195.18-111.28 195.18-111.28s26.76-70.81 74.37-50.28c44.27 19.09 70 23.42 64.5 56.47z" fill="#88c0c2"/><path d="m777.31 872.9c-10.09 23.18-33 35.92-52.74 30.18 1.62-31.31 4.28-54.75 8.58-59.41 3.54-3.85 17.48-13 36.91-24.81 12.48 12.34 15.94 34.02 7.25 54.04z" fill="#fff"/><path d="m770.87 1086.83h-.35a2.5 2.5 0 0 1 -2.13-2.82l26.61-190.27a2.5 2.5 0 0 1 1.52-2l234.64-97.15 11.48-69.56a2.5 2.5 0 0 1 4.93.81l-11.71 70.93a2.5 2.5 0 0 1 -1.51 1.9l-234.6 97.13-26.42 188.83a2.5 2.5 0 0 1 -2.46 2.2z" fill="#262424"/><path d="m798.2 1106.21h-.27l-61.56-6.54a2.5 2.5 0 0 1 .53-5l61.56 6.54a2.5 2.5 0 0 1 -.26 5z" fill="#262424"/><path d="m953.45 1100.28 8.84 77.92 30.19-4.93-1.72-79.54z" fill="#fff"/><path d="m962.29 1181.2a3 3 0 0 1 -3-2.66l-8.84-77.92a3 3 0 0 1 2.46-3.29l37.31-6.55a3 3 0 0 1 3.52 2.89l1.72 79.54a3 3 0 0 1 -2.52 3l-30.19 4.93a3 3 0 0 1 -.46.06zm-5.54-78.45 8.17 72 24.51-4-1.59-73.44z" fill="#262424"/><path d="m840.17 1268.39v13.61h168.29s.55-7.11 1.07-19.06c1-23.51 2.26-63-.87-106.72l-53.66-8.6s-46.1 48-87.12 85.3c-4.26 3.88-8.74 7.65-13.46 11.23-9.11 6.85-14.25 15.39-14.25 24.24z" fill="#88c0c2"/><path d="m919.66 1234.44a3 3 0 0 1 -2.16-5.08c36-37.27 52-68 52.18-68.3a3 3 0 1 1 5.33 2.75c-.66 1.28-16.63 31.82-53.19 69.72a3 3 0 0 1 -2.16.91z" fill="#262424"/><ellipse cx="981.82" cy="1219.67" fill="#fff" rx="14.94" ry="16.63"/><path d="m981.82 1239.3c-9.89 0-17.94-8.81-17.94-19.63s8-19.63 17.94-19.63 17.94 8.81 17.94 19.63-8.05 19.63-17.94 19.63zm0-33.27c-6.58 0-11.94 6.12-11.94 13.63s5.36 13.63 11.94 13.63 11.94-6.12 11.94-13.63-5.35-13.66-11.94-13.66z" fill="#262424"/><path d="m840.17 1268.39v13.61h168.29s.55-7.11 1.07-19.06h-88.84s-5.68-39.58-52.86-30c-4.26 3.88-8.74 7.65-13.46 11.23-9.06 6.83-14.2 15.37-14.2 24.22z" fill="#fff"/><path d="m1008.47 1285h-168.3a3 3 0 0 1 -3-3v-13.62c0-9.64 5.46-19.1 15.38-26.63 4.43-3.36 8.89-7.08 13.26-11.06a3 3 0 0 1 1.42-.72c16.28-3.3 29.67-1.34 39.83 5.82 10.87 7.66 14.8 19.07 16.06 24.14h86.41a3 3 0 0 1 3 3.13c-.52 11.86-1.07 19.08-1.08 19.15a3 3 0 0 1 -2.98 2.79zm-165.29-6h162.49c.17-2.66.45-7.14.73-13.06h-85.7a3 3 0 0 1 -3-2.57c0-.14-2.25-14.34-14.17-22.71-8.58-6-20.13-7.69-34.32-5-4.3 3.89-8.69 7.53-13 10.84-8.39 6.36-13 14.12-13 21.85v10.65z" fill="#262424"/><path d="m1239.77 713.77s-4.51 99.12-11.33 109.23c-21.51 31.89-239.29 88.39-239.29 88.39l21.26 211.61-87.74-.47s-28.67-136.63-39.54-217.26c-4.36-32.41-5.86-56.82-1.46-61.6 3.7-4 18.82-13.86 39.7-26.51 66.73-40.42 192.38-109.58 192.38-109.58s26.16-50.28 74.37-50.28 57.16 23.42 51.65 56.47z" fill="#88c0c2"/><path d="m932.11 874.23c-9.46 21.73-30.15 34.28-49 31-4.36-32.41-5.86-56.82-1.46-61.6 3.7-4 18.82-13.86 39.7-26.51 15.29 11.59 20.24 35.34 10.76 57.11z" fill="#fff"/><path d="m881.39 893.95a2.5 2.5 0 0 1 -2.48-2.21c-4.45-38.39-1.85-46.76.92-49.76 15.36-16.7 216.65-127.74 232.07-136.23a118.9 118.9 0 0 1 19.19-25.07c16.92-16.92 36.64-25.87 57-25.87a2.5 2.5 0 0 1 0 5c-46.16 0-71.9 48.44-72.16 48.93a2.5 2.5 0 0 1 -1 1c-2.14 1.26-216.34 119.26-231.42 135.62-1.32 1.43-3.92 8.76.37 45.8a2.5 2.5 0 0 1 -2.2 2.77z" fill="#262424"/><path d="m1184.68 781.69a2.5 2.5 0 0 1 -.57-.07c-8.51-2-14.46-6.4-17.68-13.1-7.67-15.93 3.13-39 3.6-40a2.5 2.5 0 0 1 4.52 2.15c-.1.22-10.24 21.92-3.61 35.69 2.54 5.26 7.35 8.76 14.31 10.39a2.5 2.5 0 0 1 -.57 4.94z" fill="#262424"/><path d="m970.33 1086.83a2.5 2.5 0 0 1 -2.48-2.18l-24.33-190.25a2.5 2.5 0 0 1 1.52-2.63l234.64-97.15 11.48-69.56a2.5 2.5 0 0 1 4.93.81l-11.71 70.93a2.5 2.5 0 0 1 -1.51 1.9l-234.15 96.97 24.09 188.33a2.5 2.5 0 0 1 -2.16 2.8z" fill="#262424"/><path d="m997.66 1106.21h-61.56a2.5 2.5 0 0 1 0-5h61.56a2.5 2.5 0 0 1 0 5z" fill="#262424"/><path d="m670.87 579.91a5.23 5.23 0 0 0 6.37 1.92l51.76-21.68a4.34 4.34 0 0 1 5.52 2 4.34 4.34 0 0 1 -2.23 6.06l-16.91 6.75a6.84 6.84 0 0 0 -4.25 7.19 6.84 6.84 0 0 0 6.45 6l26 1.31a33.06 33.06 0 0 0 22.42-7.28l7.84-6.31 19.08-.78 11.08-31.17-25.89-2.61-37.11-13.44a17.37 17.37 0 0 0 -16.84 2.82l-52.27 42.24a5.23 5.23 0 0 0 -1.02 6.98z" fill="#fff"/><path d="m745.25 592.48q-.91 0-1.82 0l-26-1.31a9.84 9.84 0 0 1 -3.16-19l16.91-6.75a1.34 1.34 0 1 0 -1-2.49l-51.78 21.66a8.25 8.25 0 0 1 -10-3 8.19 8.19 0 0 1 1.67-11l52.27-42.24a20.48 20.48 0 0 1 19.75-3.31l36.71 13.31 25.52 2.57a3 3 0 0 1 2.53 4l-11.14 31.18a3 3 0 0 1 -2.7 2l-18.1.74-7.06 5.69a36 36 0 0 1 -22.6 7.95zm-14.55-35.68a7.35 7.35 0 0 1 2.7 14.2l-16.91 6.75a3.84 3.84 0 0 0 1.23 7.4l26 1.31a30.08 30.08 0 0 0 20.36-6.6l7.84-6.31a3 3 0 0 1 1.76-.66l17.06-.7 9.15-25.65-22.08-2.22a3 3 0 0 1 -.72-.16l-37.09-13.47a14.45 14.45 0 0 0 -13.91 2.31l-52.27 42.24a2.23 2.23 0 0 0 2.27 3.8l51.76-21.67a7.4 7.4 0 0 1 2.85-.57z" fill="#262424"/><path d="m1081.15 467.47s-59.45 53.13-105.36 92.45q-5.54 4.74-10.77 9.18a66.93 66.93 0 0 1 -43.32 15.9h-128c-15-13.33-19.39-30.21-9.67-51.8l115.64-32.2 130.92-144.54z" fill="#de9244"/><path d="m975.79 559.92q-5.54 4.74-10.77 9.18a66.93 66.93 0 0 1 -43.32 15.9h-8a28.12 28.12 0 0 1 -1.09-4.34c-2.74-16.48 10-32.33 28.39-35.4 14.56-2.41 28.29 3.84 34.79 14.66z" fill="#fff"/><circle cx="800" cy="573.59" fill="#fff" r="6.71" transform="matrix(.89360653 -.44885117 .44885117 .89360653 -172.34 420.11)"/><path d="m800 583.31a9.73 9.73 0 1 1 4.35-1 9.73 9.73 0 0 1 -4.35 1zm0-13.43a3.71 3.71 0 1 0 3.32 2 3.69 3.69 0 0 0 -3.32-2z" fill="#262424"/><path d="m820.34 583.33a3 3 0 0 1 -2.49-1.32c-15.85-23.44-10.68-50.46-10.46-51.6a3 3 0 0 1 5.88 1.17c-.07.35-4.85 25.8 9.54 47.07a3 3 0 0 1 -2.47 4.68z" fill="#262424"/><path d="m1281.09 380.74s-78.51-52.17-136.35-51.13-114.14 26.86-114.14 26.86c-47 98.13-72.93 349.21-72.93 349.21s62 23.94 235.53 33.67l7.35-43.73a6.35 6.35 0 0 1 7.05-5.25 6.35 6.35 0 0 1 5.51 7.14l-5.77 43.62a344.55 344.55 0 0 0 46.33 2c25.77-184.13 27.42-362.39 27.42-362.39z" fill="#de9244"/><path d="m979.7 551.51a2.5 2.5 0 0 1 -2.46-3l13.7-70.51c8.86-44.7 21.07-85.9 34.38-116a2.5 2.5 0 1 1 4.57 2c-13.17 29.79-25.26 70.61-34 115l-13.7 70.57a2.5 2.5 0 0 1 -2.49 1.94z" fill="#262424"/><path d="m1205.72 357.58c-11.16 23.82-31 33-43.32 36.4-2.58-17.33-10.53-39.27-10.53-39.27-10 12.91-15.68 30.24-17.19 38.18-30.83-9.56-33.41-39.58-33.41-39.58 4.77-29.84 31.27-51.58 53.36-50.11 48.84 3.25 51.09 54.38 51.09 54.38z" fill="#fff"/><path d="m1162.4 397a3 3 0 0 1 -3-2.56c-1.74-11.66-6-25.64-8.51-33.19a101 101 0 0 0 -13.29 32.22 3 3 0 0 1 -3.84 2.31c-32.38-10-35.48-41.86-35.51-42.18a3 3 0 0 1 0-.73c5.25-32.88 34-54.11 56.52-52.63 26.63 1.77 39.9 17.31 46.33 30a73.59 73.59 0 0 1 7.55 27.19 3 3 0 0 1 -.28 1.41 70.09 70.09 0 0 1 -45.23 38 3 3 0 0 1 -.74.16zm-10.53-45.27a3 3 0 0 1 2.82 2c.31.85 7.11 19.72 10.11 36.42a63.82 63.82 0 0 0 37.87-33.1 69.48 69.48 0 0 0 -6.95-24.22c-8.35-16.38-22.24-25.32-41.28-26.58-19.83-1.33-45.36 18.57-50.14 47.2.38 3.24 3.91 26.31 28.19 35.56 2.19-8.74 7.63-24 17-36.09a3 3 0 0 1 2.38-1.2z" fill="#262424"/><path d="m1330.32 845h-186.9v-37a83.09 83.09 0 0 1 83-83h103.9zm11 40a29 29 0 0 0 29-29v-142a29 29 0 0 0 -29-29h-114.9a123 123 0 0 0 -123 123v48a29 29 0 0 0 29 29z" fill="#de9244"/><path d="m1323.84 637.6c-4 23.74-10 42.28-19 47-3.19 4.24-10.1 9.52-19.17 15.31-38.27 24.39-115.16 57.58-115.16 57.58-36.69-8-36.5-47.5-36.5-47.5l98.16-101s21.28-162.42 24.77-186.76 24.16-41.5 24.16-41.5c32.74 20.76 43.56 60.4 48.28 129.29 1.84 26.98 1.47 85.48-5.54 127.58z" fill="#de9244"/><path d="m1170.5 760a2.45 2.45 0 0 1 -.53-.06c-38.22-8.33-38.47-49.54-38.47-50a2.5 2.5 0 0 1 .71-1.73l97.58-100.41c1.64-12.55 21.34-162.78 24.67-186 2.18-15.22 10.71-27.68 17.48-35.45a2.5 2.5 0 0 1 3.77 3.28c-6.33 7.26-14.29 18.86-16.3 32.88-3.45 24-24.55 185.11-24.77 186.73a2.5 2.5 0 0 1 -.69 1.42l-97.43 100.34c.23 6 2.94 36.68 33.73 43.89 5.63-2.45 42.08-18.42 75.43-35.48a2.5 2.5 0 0 1 2.28 4.45c-36.22 18.53-76.07 35.77-76.47 35.94a2.51 2.51 0 0 1 -.99.2z" fill="#262424"/><path d="m1141.33 714.67s26.36 9.87 29.67 34.83l-22 32.5-5.92 26.33a6.8 6.8 0 0 1 -5.69 5.24l-30.15 4.21a6.8 6.8 0 0 1 -7.74-6.73v-33.55l-8 31.56a6.8 6.8 0 0 1 -9.56 4.45 6.8 6.8 0 0 1 -3.83-6.09l-.11-44.34a15.63 15.63 0 0 1 7.33-13.29z" fill="#fff"/><path d="m1106.3 820.84a9.8 9.8 0 0 1 -9.8-9.8v-9.37l-2 8.12a9.8 9.8 0 0 1 -13.78 6.42 9.86 9.86 0 0 1 -5.52-8.78l-.2-44.34a18.52 18.52 0 0 1 8.73-15.85l56-35.12a3 3 0 0 1 2.65-.27c1.15.43 28.08 10.81 31.59 37.25a3 3 0 0 1 -.49 2.08l-21.68 32-5.8 25.82a9.84 9.84 0 0 1 -8.2 7.55l-30.15 4.21a9.77 9.77 0 0 1 -1.35.08zm-6.8-46.34h.37a3 3 0 0 1 2.63 3v33.5a3.8 3.8 0 0 0 4.32 3.76l30.18-4.16a3.82 3.82 0 0 0 3.18-2.93l5.92-26.33a3 3 0 0 1 .44-1l21.34-31.53c-3.16-19.06-21.19-28.46-26.26-30.75l-54.67 34.29a12.56 12.56 0 0 0 -5.92 10.74l.14 44.34a3.8 3.8 0 0 0 5.4 3.43 3.78 3.78 0 0 0 2.08-2.51l8-31.56a3 3 0 0 1 2.85-2.29z" fill="#262424"/><path d="m1323.84 637.6c-4 23.74-10 42.28-19 47-3.19 4.24-10.1 9.52-19.17 15.31-.83-.7-1.64-1.46-2.42-2.26-13.45-13.88-12.37-36.74 2.41-51 10.69-10.4 25.64-13.44 38.18-9.05z" fill="#fff"/><path d="m1195.83 736.5a2.5 2.5 0 0 1 -2.48-2.24c-3.11-29.25-29.51-36.11-29.78-36.17a2.5 2.5 0 0 1 1.2-4.85c.3.07 30.07 7.8 33.55 40.5a2.5 2.5 0 0 1 -2.22 2.75h-.27z" fill="#262424"/><circle cx="1181.75" cy="736.75" fill="#fff" r="6"/><path d="m1181.75 745.75a9 9 0 1 1 9-9 9 9 0 0 1 -9 9zm0-12a3 3 0 1 0 3 3 3 3 0 0 0 -3-3z" fill="#262424"/><path d="m1185.21 243.73-1.77 30-3 51.37c-17.68 11.53-34.54 12.26-50.37-.45l3.15-23.8 4.77-36.05z" fill="#fff"/><path d="m1154.38 337c-9.16 0-17.92-3.33-26.2-10a3 3 0 0 1 -1.1-2.73l7.91-59.86a3 3 0 0 1 1.75-2.35l47.26-21.06a3 3 0 0 1 4.22 2.92l-4.79 81.39a3 3 0 0 1 -1.36 2.34q-14.36 9.35-27.69 9.35zm-21.12-13.63c13.53 10.15 28 10.17 44.27.05l4.41-74.94-41.21 18.39z" fill="#262424"/><path d="m1168.9 251c-.68 13.57-.92 59.84-37.52 63.66l6.59-49.85z" fill="#262424"/><path d="m1093.94 244.47c2.49 24.74 9.67 54.32 39.35 49.72 35.28-5.48 58.09-30.42 58.42-64s-15.15-52.51-55.36-48.66a61.68 61.68 0 0 0 -10.13 1.81c-23.13 6.23-34.77 25.41-33.33 47.9.26 4.07.56 8.57 1.05 13.23z" fill="#fff"/><path d="m1127.38 297.67a28.65 28.65 0 0 1 -18.46-6.2c-14.76-11.85-17.56-37.2-19-60-.88-13.75 2.79-26 10.61-35.48 8.23-10 20.53-16 35.56-17.41a3 3 0 0 1 .57 6c-26.4 2.53-42.4 20.79-40.75 46.53 1 15.57 2.85 44.55 16.79 55.74 5.31 4.26 11.9 5.72 20.15 4.44 13.15-2 24.49-6.8 33.72-14.13a3 3 0 1 1 3.73 4.7c-9.91 7.88-22.54 13.2-36.53 15.37a41.51 41.51 0 0 1 -6.39.44z" fill="#262424"/><path d="m1202.2 236.51a103.14 103.14 0 0 1 -11.42 13.79l-17.79 1.1-3.79-12.6s-11.29-.5-13.63-8.12a4.41 4.41 0 0 1 -.15-.53c-.6-2.5-2.91-13.63-1.22-30.93 0 0-27.14 12-41.92 13.54-5.31.56-11.52-1.48-17.3-4.34-11.56-5.72-21.67-24.56-19.65-37.3v-.24c3.18-18.67 12.91-5.74 12.91-5.74s2.78-15 12.2-16.12 15.42 12.81 15.42 12.81a148.32 148.32 0 0 1 55.16-2.3c36.41 5.56 27.35 30.64 27.35 30.64s26.81 8.61 3.83 46.34z" fill="#262424"/><path d="m1176.86 249.49c-1.53-14 8.33-27.05 22.35-28.66a23.5 23.5 0 0 1 8.88.63c17.37 4.69 12.81 45.14-29.7 42.06z" fill="#fff"/><g fill="#262424"><path d="m1182.83 266.68c-1.51 0-3.06-.06-4.66-.17a3 3 0 0 1 .44-6c23.41 1.7 33.87-10.25 35.69-21 1.25-7.36-1.69-13.74-7-15.17a20.59 20.59 0 0 0 -7.75-.55c-12.24 1.41-21.08 12.78-19.71 25.36a3 3 0 0 1 -6 .65c-1.72-15.85 9.49-30.19 25-32a26.58 26.58 0 0 1 10 .72c8.35 2.25 13.12 11.49 11.34 22-2.24 13.39-14.64 26.16-37.35 26.16z"/><path d="m417.89 1285h917.28a3 3 0 0 0 0-6h-917.28a3 3 0 0 0 0 6"/><path d="m390.09 1279h-48.61a3 3 0 0 0 0 6h48.61a3 3 0 1 0 0-6"/><path d="m1380.21 1279h-24.31a3 3 0 0 0 0 6h24.31a3 3 0 0 0 0-6"/><path d="m670.29 1324.6h412.49a3 3 0 0 0 0-6h-412.49a3 3 0 0 0 0 6"/><path d="m531.07 1324.6h86.76a3 3 0 1 0 0-6h-86.76a3 3 0 0 0 0 6"/><path d="m1144.43 1324.6h28.57a3 3 0 0 0 0-6h-28.53a3 3 0 0 0 0 6"/><path d="m883.74 364.36a2.5 2.5 0 0 1 -2.11-1.16l-6.44-10.13a2.5 2.5 0 0 1 4.22-2.68l6.44 10.13a2.5 2.5 0 0 1 -2.11 3.84zm10-6a2.5 2.5 0 0 1 -1.34-4.61l10.13-6.44a2.5 2.5 0 1 1 2.68 4.22l-10.13 6.44a2.49 2.49 0 0 1 -1.3.37zm20.26-12.89a2.5 2.5 0 0 1 -1.34-4.61l10.13-6.44a2.5 2.5 0 1 1 2.68 4.22l-10.13 6.44a2.49 2.49 0 0 1 -1.34.39zm-43.16-1.36a2.5 2.5 0 0 1 -2.11-1.16l-6.44-10.13a2.5 2.5 0 0 1 4.22-2.68l6.49 10.12a2.5 2.5 0 0 1 -2.13 3.84zm63.42-11.51a2.5 2.5 0 0 1 -1.34-4.61l10.13-6.44a2.5 2.5 0 1 1 2.68 4.22l-10.13 6.44a2.49 2.49 0 0 1 -1.31.38zm-76.26-8.75a2.5 2.5 0 0 1 -2.11-1.16l-6.44-10.13a2.5 2.5 0 1 1 4.22-2.68l6.43 10.12a2.5 2.5 0 0 1 -2.1 3.85z"/><path d="m944.42 326.16a2.5 2.5 0 0 1 -2.12-1.16l-37.12-58.4-58.4 37.12a2.5 2.5 0 1 1 -2.68-4.22l60.51-38.5a2.5 2.5 0 0 1 3.45.77l38.46 60.51a2.5 2.5 0 0 1 -2.1 3.88z"/><path d="m875.45 402.55a2.5 2.5 0 0 1 -2.11-1.16l-38.46-60.51a2.5 2.5 0 0 1 .77-3.45l60.51-38.43a2.5 2.5 0 0 1 3.45.77l38.46 60.51a2.5 2.5 0 0 1 -.77 3.45l-60.51 38.46a2.5 2.5 0 0 1 -1.34.36zm-35-62.24 35.78 56.29 56.29-35.78-35.78-56.29z"/><path d="m837 342a2.5 2.5 0 0 1 -2.44-3l8.44-37.94a2.5 2.5 0 0 1 4.88 1.09l-8.45 37.94a2.5 2.5 0 0 1 -2.43 1.91z"/><path d="m897.5 303.58a2.5 2.5 0 0 1 -2.44-3l8.45-37.94a2.5 2.5 0 0 1 4.88 1.09l-8.45 37.94a2.5 2.5 0 0 1 -2.44 1.91z"/><path d="m936 364.09a2.5 2.5 0 0 1 -2.44-3l8.44-37.98a2.5 2.5 0 0 1 4.88 1.09l-8.45 37.94a2.5 2.5 0 0 1 -2.43 1.95z"/><path d="m876.08 399.75a2.5 2.5 0 0 1 -2.44-3l2.6-11.75a2.5 2.5 0 0 1 4.88 1.09l-2.61 11.71a2.5 2.5 0 0 1 -2.43 1.95zm5.22-23.43a2.5 2.5 0 0 1 -2.44-3l2.61-11.71a2.5 2.5 0 0 1 4.88 1.09l-2.61 11.71a2.5 2.5 0 0 1 -2.44 1.92z"/><path d="m710.79 207.73h-.37l-82.91-12.28a2.5 2.5 0 0 1 -1.12-4.48l95.2-70.63a2.5 2.5 0 0 1 4 2.37l-12.33 82.89a2.5 2.5 0 0 1 -2.47 2.13zm-76.58-16.37 74.47 11 11-74.47z"/><path d="m698.29 190.88a2.5 2.5 0 0 1 -2-1l-3.59-4.88a2.5 2.5 0 1 1 4-3l3.58 4.82a2.5 2.5 0 0 1 -1.99 4.06z"/><path d="m686.93 175.57a2.5 2.5 0 0 1 -2-1l-7.78-10.49a2.5 2.5 0 1 1 4-3l7.78 10.49a2.5 2.5 0 0 1 -2 4zm-15.57-21a2.5 2.5 0 0 1 -2-1l-7.78-10.49a2.5 2.5 0 0 1 4-3l7.78 10.49a2.5 2.5 0 0 1 -2 4.01zm-15.57-21a2.5 2.5 0 0 1 -2-1l-7.79-10.47a2.5 2.5 0 0 1 4-3l7.78 10.49a2.5 2.5 0 0 1 -1.99 4.01z"/><path d="m640.23 112.62a2.5 2.5 0 0 1 -2-1l-3.57-4.82a2.5 2.5 0 0 1 4-3l3.57 4.82a2.5 2.5 0 0 1 -2 4z"/><path d="m710.79 207.73h-.37l-20.76-3.08a2.5 2.5 0 0 1 -2.11-2.84 23.51 23.51 0 0 1 26.68-19.81 2.5 2.5 0 0 1 2.11 2.84l-3.08 20.76a2.5 2.5 0 0 1 -2.47 2.13zm-17.79-7.66 15.64 2.32 2.36-15.64h-.22a18.53 18.53 0 0 0 -17.78 13.32z"/><path d="m383.49 175.11a2.5 2.5 0 0 1 -.79-.13l-67.4-22.33a2.5 2.5 0 0 1 1.57-4.75l67.4 22.33a2.5 2.5 0 0 1 -.78 4.88z"/><path d="m365.48 208.86-4-11.63-9.7 7.1-6-2 14.06-10-5.65-16.42 7.38 2.45 3.9 11.46 9-7.2 6 2-13.47 9.69 5.69 16.93z"/><path d="m339.37 200.69a2.49 2.49 0 0 1 -.79-.13l-32.91-10.9a2.5 2.5 0 0 1 -.75-4.35l24.58-19.08a2.5 2.5 0 0 1 3.94 1.31l8.32 30a2.5 2.5 0 0 1 -2.39 3.15zm-27.67-14.3 12 4 12 4-6.07-21.88z"/><path d="m355.67 151.48a2.49 2.49 0 0 1 -.79-.13l-16.45-5.45-16.43-5.45a2.5 2.5 0 0 1 -.75-4.35l24.57-19.1a2.5 2.5 0 0 1 3.94 1.31l8.32 30a2.5 2.5 0 0 1 -2.41 3.17zm-15.67-10.32 12 4-6.07-21.88-17.93 13.9z"/><path d="m377.12 141.15-3.34-1.15 1.31-4 3.34 1.11 2.71-8.19q1.4-4.24 4.08-5.86a7.39 7.39 0 0 1 6.4-.39 9.29 9.29 0 0 1 2.11 1 7.69 7.69 0 0 1 1.78 1.56l-2.94 2.58a2.72 2.72 0 0 0 -1.73-1.41 3.34 3.34 0 0 0 -3.11.33 7 7 0 0 0 -2.23 3.65l-2.7 8.14 6.2 2.18-1.31 4-6.21-2.06-5.16 15.58-4.32-1.49z"/><path d="m197.38 497.63a2.5 2.5 0 0 1 -2-1c-.65-.85-16.15-21.22-25.81-54.94s-7.31-59.2-7.21-60.27a2.5 2.5 0 0 1 5 .49c0 .25-2.35 25.66 7 58.4s24.81 53.06 25 53.26a2.5 2.5 0 0 1 -1.98 4.06z"/><path d="m244.49 484.13h-.25a2.5 2.5 0 0 1 -2.25-2.73c0-.25 2.35-25.66-7-58.4s-24.81-53.06-25-53.27a2.5 2.5 0 0 1 4-3c.65.85 16.15 21.22 25.81 54.94s7.31 59.2 7.21 60.27a2.5 2.5 0 0 1 -2.52 2.19z"/><path d="m204.2 376.41-5.89 44.45-5.93 1.7 2.19-15.48-19.76-22.24 6.77-1.94 14.09 16.54 3-21.44z"/><path d="m222.63 475-9.85-7.36-4 11.33-6.12 1.75 6-16.22-13.93-10.38 7.48-2.14 9.69 7.27 3.33-11 6.06-1.74-5.57 15.62 14.2 10.87z"/><path d="m183.43 440.26a2.5 2.5 0 0 1 -.69-4.9l44.9-12.87a2.5 2.5 0 1 1 1.38 4.81l-44.9 12.87a2.5 2.5 0 0 1 -.69.09z"/></g><path d="m182.53 694.62-4.38-10.51-8.53 7.14-5.71-1.49 12.39-10.11-6.2-14.83 7 1.82 4.26 10.36 7.84-7.19 5.65 1.47-11.85 9.81 6.27 15.3z"/><path d="m233.48 682.76-1.28 4.93-30.75-8 1.28-4.93zm-3.07 11.77-1.28 4.93-30.75-8 1.28-4.93z"/><path d="m253.59 713.15-4.38-10.51-8.53 7.14-5.68-1.49 12.39-10.11-6.2-14.83 7 1.82 4.29 10.36 7.84-7.19 5.65 1.47-11.8 9.82 6.27 15.3z"/><path d="m270.62 696.9a13.11 13.11 0 0 1 6.17-3.49 15 15 0 0 1 7.57.11 14.61 14.61 0 0 1 6.6 3.58 12.86 12.86 0 0 1 3.57 6 13.79 13.79 0 0 1 0 7.17 14 14 0 0 1 -3.47 6.31 12.74 12.74 0 0 1 -6.08 3.51 14.92 14.92 0 0 1 -7.6-.12 15.3 15.3 0 0 1 -6.6-3.48 12.58 12.58 0 0 1 -3.68-5.93 13.9 13.9 0 0 1 0-7.43 13.47 13.47 0 0 1 3.52-6.23zm2 12.37a8.3 8.3 0 0 0 2.07 3.88 8.16 8.16 0 0 0 10.16 1.24 9 9 0 0 0 3.88-5.53 9.07 9.07 0 0 0 -.68-6.75 7.74 7.74 0 0 0 -5.12-4 7.57 7.57 0 0 0 -4.39.11 8.65 8.65 0 0 0 -3.68 2.41 9.75 9.75 0 0 0 -2.2 8.64z"/></svg>