<svg viewBox="0 0 400 300" xmlns="http://www.w3.org/2000/svg"><path d="m221.92 176.73h33.64v29.46h-33.64z" fill="#093f68"/><path d="m255.57 207.19h-33.65a1 1 0 0 1 -1-1v-29.46a1 1 0 0 1 1-1h33.65a1 1 0 0 1 1 1v29.46a1 1 0 0 1 -1 1zm-32.65-2h31.65v-27.46h-31.65z" fill="#093f68"/><path d="m213.38 200.68h49.41v6.13h-49.41z" fill="#fff"/><path d="m262.78 207.8h-49.4a1 1 0 0 1 -1-1v-6.12a1 1 0 0 1 1-1h49.4a1 1 0 0 1 1 1v6.12a1 1 0 0 1 -1 1zm-48.4-2h47.4v-4.12h-47.4z" fill="#093f68"/><path d="m295.57 178.28h-111.83a5.49 5.49 0 0 1 -5.56-6.16l7.25-74.12a7 7 0 0 1 6.76-6.16h111.81a5.48 5.48 0 0 1 5.58 6.16l-7.24 74.14a7 7 0 0 1 -6.77 6.14z" fill="#093f68"/><path d="m295.57 179.28h-111.83a6.48 6.48 0 0 1 -6.55-7.26l7.24-74.14a8 8 0 0 1 7.76-7.06h111.81a6.51 6.51 0 0 1 4.91 2.12 6.59 6.59 0 0 1 1.65 5.14l-7.25 74.14a8 8 0 0 1 -7.74 7.06zm-103.38-86.46a6 6 0 0 0 -5.77 5.26l-7.24 74.14a4.49 4.49 0 0 0 4.56 5.06h111.83a5.93 5.93 0 0 0 5.77-5.26l7.25-74.14a4.61 4.61 0 0 0 -1.14-3.6 4.55 4.55 0 0 0 -3.45-1.46z" fill="#093f68"/><path d="m289 178.28h-111.82a5.5 5.5 0 0 1 -5.57-6.16l7.25-74.12a7 7 0 0 1 6.77-6.16h111.83a5.49 5.49 0 0 1 5.54 6.16l-7.25 74.14a7 7 0 0 1 -6.75 6.14z" fill="#68e1fd"/><path d="m289 179.28h-111.82a6.48 6.48 0 0 1 -6.56-7.26l7.25-74.14a8 8 0 0 1 7.76-7.06h111.83a6.48 6.48 0 0 1 6.54 7.26l-7.25 74.14a8 8 0 0 1 -7.75 7.06zm-103.37-86.46a5.93 5.93 0 0 0 -5.77 5.26l-7.25 74.14a4.62 4.62 0 0 0 1.13 3.59 4.56 4.56 0 0 0 3.44 1.47h111.82a5.93 5.93 0 0 0 5.77-5.26l7.23-74.14a4.64 4.64 0 0 0 -1.13-3.6 4.58 4.58 0 0 0 -3.43-1.46z" fill="#093f68"/><path d="m287.39 161.09h-105.24a2.73 2.73 0 0 1 -2.76-3.07l5.53-56.6a3.46 3.46 0 0 1 3.37-3.07h105.23a2.74 2.74 0 0 1 2.77 3.07l-5.54 56.58a3.46 3.46 0 0 1 -3.36 3.09z" fill="#fff"/><path d="m287.39 162.09h-105.24a3.74 3.74 0 0 1 -3.76-4.17l5.53-56.6a4.49 4.49 0 0 1 4.37-4h105.23a3.72 3.72 0 0 1 3.76 4.17l-5.53 56.6a4.48 4.48 0 0 1 -4.36 4zm-99.1-62.74a2.49 2.49 0 0 0 -2.38 2.17l-5.53 56.6a1.78 1.78 0 0 0 .44 1.4 1.74 1.74 0 0 0 1.33.57h105.24a2.48 2.48 0 0 0 2.37-2.17l5.53-56.6a1.78 1.78 0 0 0 -.44-1.4 1.74 1.74 0 0 0 -1.33-.57z" fill="#093f68"/><path d="m281.77 154.59h-53.74l3.98-40.74h53.74z" fill="#fff"/><path d="m281.77 155.59h-53.77a1 1 0 0 1 -.74-.33 1 1 0 0 1 -.26-.77l4-40.74a1 1 0 0 1 1-.9h53.74a1 1 0 0 1 .74.32 1 1 0 0 1 .26.77l-4 40.74a1 1 0 0 1 -.97.91zm-52.64-2h51.73l3.79-38.74h-51.73z" fill="#093f68"/><path d="m285.08 120.75h-53.74l.67-6.9h53.74z" fill="#fff"/><path d="m285.08 121.75h-53.74a1 1 0 0 1 -.75-.32 1 1 0 0 1 -.25-.77l.68-6.91a1 1 0 0 1 1-.9h53.74a1 1 0 0 1 .74.32 1 1 0 0 1 .26.77l-.68 6.91a1 1 0 0 1 -1 .9zm-52.64-2h51.73l.48-4.9h-51.73z" fill="#093f68"/><path d="m245.15 145.7h-53.74l3.98-40.74h53.74z" fill="#fff"/><path d="m245.15 146.7h-53.74a1 1 0 0 1 -.74-.33 1 1 0 0 1 -.26-.77l4-40.74a1 1 0 0 1 1-.9h53.74a1 1 0 0 1 1 1.1l-4 40.74a1 1 0 0 1 -1 .9zm-52.64-2h51.73l3.76-38.7h-51.7z" fill="#093f68"/><path d="m248.46 111.87h-53.75l.68-6.91h53.74z" fill="#fff"/><path d="m248.46 112.87h-53.75a1 1 0 0 1 -.74-.33 1 1 0 0 1 -.25-.77l.67-6.91a1 1 0 0 1 1-.9h53.74a1 1 0 0 1 1 1.1l-.68 6.91a1 1 0 0 1 -.99.9zm-52.64-2h51.73l.45-4.87h-51.7z" fill="#093f68"/><path d="m235.83 140.39h-10.89a1 1 0 0 1 -.74-.33 1 1 0 0 1 -.26-.77l.62-6.34a1 1 0 0 1 1-.9h10.89a1 1 0 0 1 .74.33 1 1 0 0 1 .25.77l-.62 6.34a1 1 0 0 1 -.99.9zm-9.79-2h8.88l.42-4.34h-8.88z" fill="#dfeaef"/><path d="m240.26 134.84h-10.89l.62-6.34h10.89z" fill="#fff"/><path d="m240.26 135.84h-10.89a1 1 0 0 1 -.74-.33 1 1 0 0 1 -.25-.77l.62-6.34a1 1 0 0 1 1-.9h10.89a1 1 0 0 1 .74.33 1 1 0 0 1 .26.77l-.62 6.34a1 1 0 0 1 -1.01.9zm-9.79-2h8.88l.43-4.34h-8.88z" fill="#dfeaef"/><path d="m214.38 128.5h-15.77l1.24-12.59h15.76z" fill="#fff"/><path d="m214.38 129.5h-15.77a1 1 0 0 1 -.74-.33 1 1 0 0 1 -.25-.77l1.23-12.59a1 1 0 0 1 1-.9h15.76a1 1 0 0 1 .74.32 1 1 0 0 1 .26.77l-1.23 12.6a1 1 0 0 1 -1 .9zm-14.66-2h13.75l1-10.59h-13.72z" fill="#dfeaef"/><path d="m207.9 139.96h-10.41l.75-7.59h10.4z" fill="#fff"/><g fill="#dfeaef"><path d="m207.9 141h-10.41a1 1 0 0 1 -.74-.33 1 1 0 0 1 -.25-.77l.74-7.58a1 1 0 0 1 1-.91h10.4a1 1 0 0 1 .74.33 1 1 0 0 1 .25.77l-.74 7.59a1 1 0 0 1 -.99.9zm-9.3-2h8.4l.55-5.59h-8.4z"/><path d="m276.18 128.5h-22.1a1 1 0 0 1 0-2h22.1a1 1 0 0 1 0 2z"/><path d="m268.26 135.25h-14.84a1 1 0 1 1 0-2h14.84a1 1 0 0 1 0 2z"/><path d="m274.86 142h-22.1a1 1 0 0 1 0-2h22.1a1 1 0 0 1 0 2z"/><path d="m274.2 148.76h-10a1 1 0 0 1 0-2h10a1 1 0 0 1 0 2z"/><path d="m255.57 148.76h-3.47a1 1 0 0 1 0-2h3.47a1 1 0 0 1 0 2z"/></g><path d="m160.55 206.19h99.09v9.12h-99.09z" fill="#68e1fd"/><path d="m259.64 216.3h-99.09a1 1 0 0 1 -1-1v-9.11a1 1 0 0 1 1-1h99.09a1 1 0 0 1 1 1v9.11a1 1 0 0 1 -1 1zm-98.09-2h97.09v-7.11h-97.09z" fill="#093f68"/><path d="m259.64 206.19h54.17v9.12h-54.17z" fill="#68e1fd" transform="matrix(-1 0 0 -1 573.45 421.49)"/><path d="m313.81 216.3h-54.17a1 1 0 0 1 -1-1v-9.11a1 1 0 0 1 1-1h54.17a1 1 0 0 1 1 1v9.11a1 1 0 0 1 -1 1zm-53.17-2h52.17v-7.11h-52.17z" fill="#093f68"/><path d="m168.22 121s4.33 6.78 2.31 9.17-6.22 0-6.22 0" fill="#ffc9b0"/><path d="m168 132.19a9.64 9.64 0 0 1 -4.22-1.2 1 1 0 1 1 1-1.74s3.52 1.92 5 .23c1-1.25-.81-5.51-2.4-8a1 1 0 0 1 1.69-1.07c.79 1.23 4.61 7.54 2.23 10.36a4.06 4.06 0 0 1 -3.3 1.42z" fill="#093f68"/><ellipse cx="121.93" cy="123.13" fill="#ffc9b0" rx="7.88" ry="6.79"/><path d="m121.93 130.91c-4.89 0-8.87-3.49-8.87-7.78s4-7.79 8.87-7.79 8.88 3.49 8.88 7.79-3.98 7.78-8.88 7.78zm0-13.57c-3.79 0-6.87 2.6-6.87 5.79s3.08 5.78 6.87 5.78 6.88-2.59 6.88-5.78-3.09-5.79-6.88-5.79z" fill="#093f68"/><path d="m155.68 94c6.76 11.6 11.37 5 12.76 2.75v24.72a23.75 23.75 0 0 1 -21.69 23.66v5.07a4.05 4.05 0 1 1 -8.1 0v-4.75c-14.41-.54-21.44-12.94-21.44-24l3.72-22s9.44 7.39 34.75-5.45z" fill="#ffc9b0"/><path d="m142.7 155.28a5.06 5.06 0 0 1 -5-5.06v-3.81a21.64 21.64 0 0 1 -15.96-8.41 27.23 27.23 0 0 1 -5.53-16.54.86.86 0 0 1 0-.16l3.72-22a1 1 0 0 1 1.6-.62c.09.06 9.41 6.72 33.69-5.58a1 1 0 0 1 1.32.39c2.34 4 4.64 6.15 6.65 6.17 1.48 0 3-1.14 4.39-3.44a1 1 0 0 1 1.85.52v24.72a24.9 24.9 0 0 1 -21.69 24.56v4.17a5.06 5.06 0 0 1 -5.04 5.09zm-24.49-33.7c0 11 7.06 22.39 20.47 22.89a1 1 0 0 1 1 1v4.76a3.05 3.05 0 1 0 6.1 0v-5.07a1 1 0 0 1 .92-1 22.89 22.89 0 0 0 20.77-22.67v-21.77a5.88 5.88 0 0 1 -4.21 2c-2.63 0-5.28-2.16-7.88-6.36-20 9.94-30.19 7.32-33.62 5.73z" fill="#093f68"/><path d="m155.93 103.9c1.48.16 12.46 2.87 13.58 1.75 2.35-2.36 2.38-6 1.84-9.06a29.67 29.67 0 0 0 -5.74-13c-2.7-3.48-7.06-8.11-11.73-8.44a1.14 1.14 0 0 0 -1 .3 1.25 1.25 0 0 0 0 1.14l2 5.22a18.54 18.54 0 0 0 -11.51-6.49 31.07 31.07 0 0 0 -13.37 1c-.34 2.36 3.18 3.45 3.87 5.74a21.75 21.75 0 0 0 -14.39 3.76c-8.36 5.84-10.35 15.59-10.11 25.14.19 6.91 1.27 14 4.81 19.94 6.78 11.39 22.6 14.27 33.31 7.46 10.11-6.36 7.51-29.23 8.44-34.46z" fill="#725858"/><path d="m134.64 143a26.39 26.39 0 0 1 -6.16-.73 23.77 23.77 0 0 1 -15.16-10.87c-3.15-5.29-4.72-11.78-4.94-20.42-.33-12.32 3.12-20.82 10.53-26a22.93 22.93 0 0 1 13.09-3.98l-.75-.7c-1.16-1-2.47-2.24-2.2-4.08a1 1 0 0 1 .73-.82 32 32 0 0 1 13.8-1 20.82 20.82 0 0 1 8.78 3.6l-.4-1a2.19 2.19 0 0 1 .08-2.08 2 2 0 0 1 1.96-.72c3.94.28 8.13 3.25 12.45 8.83a30.65 30.65 0 0 1 5.94 13.39c.77 4.41 0 7.75-2.13 9.94-1 1-3.62.73-11.93-1l-1.49-.3c-.1 1.19-.13 2.89-.15 4.78-.14 9-.36 24.13-8.61 29.37a25 25 0 0 1 -13.44 3.79zm-2.79-60a20.88 20.88 0 0 0 -11.8 3.68c-6.81 4.76-10 12.7-9.68 24.29.22 8.3 1.7 14.48 4.67 19.46a21.8 21.8 0 0 0 13.96 9.92 23.6 23.6 0 0 0 18-2.82c7.33-4.66 7.55-19.09 7.68-27.7a46.7 46.7 0 0 1 .3-6.11 1 1 0 0 1 1.09-.81c.4 0 1.18.2 2.65.5 2.46.51 8.94 1.85 10.19 1.46 1.64-1.7 2.14-4.43 1.5-8.11a28.67 28.67 0 0 0 -5.55-12.5c-2.72-3.52-6.84-7.77-11-8.07a1 1 0 0 1 0 .1l2 5.21a1 1 0 0 1 -1.72 1 17.71 17.71 0 0 0 -10.9-6.12 29.24 29.24 0 0 0 -12.13.74 5.5 5.5 0 0 0 1.48 1.7 7 7 0 0 1 2.28 3 1 1 0 0 1 -.19.92 1 1 0 0 1 -.87.36q-1-.1-1.96-.1z" fill="#093f68"/><path d="m158 115c-3.25-1.18-8.49-.6-8.47 6.33 0 3.75 2.28 7 5.71 7.22" fill="#ffc9b0"/><path d="m155.26 129.54h-.08c-3.83-.28-6.62-3.74-6.63-8.22 0-3.86 1.52-5.75 2.82-6.66a7.82 7.82 0 0 1 7-.61 1 1 0 0 1 -.68 1.88 5.8 5.8 0 0 0 -5.16.37c-1.32.92-2 2.61-2 5 0 3.41 2 6 4.78 6.24a1 1 0 0 1 .92 1.07 1 1 0 0 1 -.97.93z" fill="#093f68"/><circle cx="164.14" cy="116" fill="#093f68" r="2.06"/><path d="m167.69 112.05s-3.08-2.19-5.8-.61" fill="#ffc9b0"/><path d="m167.69 113.05a1 1 0 0 1 -.58-.18c-.06 0-2.61-1.78-4.72-.57a1 1 0 0 1 -1.37-.36 1 1 0 0 1 .37-1.37c3.23-1.87 6.73.56 6.88.67a1 1 0 0 1 .23 1.39 1 1 0 0 1 -.81.42z" fill="#093f68"/><path d="m169.92 190.58s.55 13 11.6 15.38 43.34-1.06 43.34-1.06 8.67 0 9.75-2.82-3.9-9.1-9.1-8.66a52 52 0 0 0 -9.53 1.73l-26-3-5.43-14.15z" fill="#ffc9b0"/><path d="m193.43 207.81a63.62 63.62 0 0 1 -12.12-.87c-11.67-2.52-12.39-16.18-12.39-16.32a1 1 0 0 1 .35-.8l14.63-12.55a1 1 0 0 1 .9-.21 1 1 0 0 1 .69.61l5.2 13.52 25.2 2.94a54.15 54.15 0 0 1 9.54-1.71c3.64-.32 6.91 2.22 8.6 4.48 1.51 2 2.08 4.08 1.52 5.54-1.26 3.26-9 3.46-10.64 3.46-1.41.15-18.26 1.91-31.48 1.91zm-22.43-16.81c.21 2.3 1.65 12 10.78 14 10.77 2.32 42.7-1 43-1.07h.11c3.22 0 8.25-.69 8.82-2.18.25-.64 0-2-1.25-3.62-1.38-1.85-4-3.91-6.84-3.69a51.12 51.12 0 0 0 -9.33 1.7.91.91 0 0 1 -.4 0l-26-3a1 1 0 0 1 -.82-.64l-4.91-12.76z" fill="#093f68"/><path d="m188.4 183.12s-14.19-40-29.35-40h-34.12a13.83 13.83 0 0 0 -13.78 12.6l-5.37 59.56h61.91l-.64-23.3z" fill="#f56132"/><path d="m167.69 216.3h-61.91a1 1 0 0 1 -.78-.3 1 1 0 0 1 -.25-.77l5.36-59.56a14.77 14.77 0 0 1 14.78-13.51h34.12c15.68 0 29.7 39 30.29 40.65a1 1 0 0 1 -.55 1.26l-20.72 8.61.62 22.62a1 1 0 0 1 -1 1zm-60.81-2h59.78l-.6-22.28a1 1 0 0 1 .61-1l20.46-8.5a157.45 157.45 0 0 0 -8.61-19c-6.93-12.72-13.67-19.45-19.47-19.45h-34.12a12.78 12.78 0 0 0 -12.79 11.69z" fill="#093f68"/><path d="m96.7 152.57h40.61a10.51 10.51 0 0 1 10.44 9.32l6 53.41h-61.75l-5.77-51.05a10.5 10.5 0 0 1 10.47-11.68z" fill="#68e1fd"/><path d="m153.79 216.3h-61.79a1 1 0 0 1 -1-.88l-5.77-51.06a11.5 11.5 0 0 1 11.47-12.79h40.61a11.5 11.5 0 0 1 11.43 10.21l6 53.41a1 1 0 0 1 -.25.78 1 1 0 0 1 -.7.33zm-60.86-2h59.74l-5.92-52.3a9.49 9.49 0 0 0 -9.44-8.43h-40.61a9.51 9.51 0 0 0 -9.45 10.57z" fill="#093f68"/><path d="m167.05 193a1 1 0 0 1 -.93-.65l-10.12-26.26a1 1 0 0 1 1.87-.72l10.13 26.27a1 1 0 0 1 -.58 1.29 1.15 1.15 0 0 1 -.37.07z" fill="#093f68"/><path d="m279.47 183.66h23a0 0 0 0 1 0 0v16.43a6.1 6.1 0 0 1 -6.1 6.1h-10.8a6.1 6.1 0 0 1 -6.1-6.1v-16.43a0 0 0 0 1 0 0z" fill="#ffbc0e"/><path d="m296.41 207.19h-10.84a7.11 7.11 0 0 1 -7.1-7.1v-16.43a1 1 0 0 1 1-1h23a1 1 0 0 1 1 1v16.43a7.11 7.11 0 0 1 -7.06 7.1zm-15.94-22.53v15.43a5.11 5.11 0 0 0 5.1 5.1h10.84a5.1 5.1 0 0 0 5.09-5.1v-15.43z" fill="#093f68"/><path d="m305.69 200.48h-3.19a1 1 0 0 1 -1-1v-11.27a1 1 0 0 1 1-1h3.19a6.64 6.64 0 1 1 0 13.27zm-2.19-2h2.19a4.64 4.64 0 1 0 0-9.27h-2.19z" fill="#093f68"/></svg>