<svg viewBox="0 0 400 300" xmlns="http://www.w3.org/2000/svg" xmlns:xlink="http://www.w3.org/1999/xlink"><linearGradient id="a" gradientUnits="userSpaceOnUse" x1="204.08" x2="139.19" y1="209.62" y2="244.59"><stop offset="0" stop-color="#d4a397"/><stop offset="1" stop-color="#fff"/></linearGradient><path d="m62.32 201 152.25 85.9a13.52 13.52 0 0 0 13.4-.07l83.44-48.17a8.78 8.78 0 0 0 0-15.21l-150.91-87.11a12.72 12.72 0 0 0 -12.72 0l-85.53 49.39a8.78 8.78 0 0 0 .07 15.27z" fill="#ff952c"/><path d="m316.84 92.87-138.43-79.63a4.23 4.23 0 0 0 -6.32 3.33l-8.85 110.38c-.43 5.36 6.62 8 10.53 10.16l13.85 7.69 40.06 22.2 42.32 23.56 27.65 15.36c1 .58 2.1 1.15 3.14 1.74a4.23 4.23 0 0 0 6.28-3.22l11.86-107.44a4.23 4.23 0 0 0 -2.09-4.13z" fill="#172d51"/><rect fill="#bc532a" height="70.74" rx="1.74" width="10.67" x="84.27" y="127.33"/><path d="m116 141.8c-2.46-10.68-13.39-57.72-32.76-43.89-9.92 7.08-12.73 18.15-16.7 29-3.29 9-6 18.4-6.17 28-.31 19.57 19.6 22 34.83 21.89 8.78 0 21.32-5.23 23.37-14.76 1.24-5.75-.87-12.53-2.1-18.17q-.28-1.03-.47-2.07z" fill="#2c9135"/><path d="m116.88 143.87q-.23-1-.47-2.08c-2.18-9.44-11-47.31-26.38-46.38 4.57 20 11.32 41.06 7.72 61.49a46.73 46.73 0 0 1 -8.15 19.78c2 .1 4.07.13 6 .12 8.78 0 21.32-5.23 23.37-14.76 1.25-5.75-.86-12.53-2.09-18.17z" fill="#156819"/><path d="m297.23 229.87-5.7 2.46-20.97-12.4-63.75 36.81-5.43-2.7v5.83l27.12 16.04 68.73-40.22-.05-.03.05.02z" fill="#68e1fd"/><path d="m297.23 229.87-5.7 2.46-20.97-12.4-63.75 36.81-5.43-2.7v5.83l27.12 16.04 68.73-40.22-.05-.03.05.02z" fill="#2e90a0" opacity=".47"/><path d="m201.38 254.04 27.12 16.05 68.73-40.22-26.67-15.76z" fill="#68e1fd"/><g fill="#fff"><path d="m229.46 244.25 11.8-6.91 2.78 2-4.28 2.51 11.63 8.34-3.21 1.89-11.63-8.34-4.3 2.51z"/><path d="m214.23 253.18 3.23-1.89 5.77 4.15 6.44-3.78-5.77-4.14 3.21-1.88 14.42 10.34-3.22 1.89-5.87-4.22-6.43 3.78 5.87 4.21-3.23 1.89z"/><path d="m263.56 224.26 3.23-1.89 11.64 8.35 6.97-4.08 2.77 1.99-10.19 5.97z"/><path d="m243.62 235.95 2.9-1.7 11.42 1.49-1.09-7.55 2.86-1.67 14.42 10.34-3.22 1.89-9.61-6.9 1.07 7.07-10.68-1.38 9.57 6.87-3.23 1.89z"/></g><path d="m216.85 60.72v3.59l-30.02-17.45v-3.5z" fill="#f7931e"/><path d="m219.84 62.44 84.62 48.92v3.86l-84.62-49.17z" fill="#00a99d"/><path d="m291.22 115.39 13.24 7.65v3.86l-13.24-7.69z" fill="#8cc63f"/><path d="m288.24 113.67v3.8l-47.39-27.53v-3.67z" fill="#f7931e"/><path d="m237.87 84.55v3.65l-31-18.01v-3.56z" fill="#f15a24"/><path d="m203.89 64.9v3.56l-17.06-9.91v-3.51z" fill="#8cc63f"/><path d="m218.89 85.16 84.62 48.92v3.86l-84.62-49.18z" fill="#00a99d"/><path d="m209.62 108v3.6l-30.02-17.45v-3.5z" fill="#f7931e"/><path d="m212.61 109.73 84.62 48.92v3.86l-84.62-49.18z" fill="#00a99d"/><path d="m283.99 162.68 13.24 7.65v3.86l-13.24-7.69z" fill="#8cc63f"/><path d="m281.01 160.95v3.81l-47.39-27.53v-3.67z" fill="#f7931e"/><path d="m230.64 131.83v3.66l-30.99-18.01v-3.56z" fill="#f15a24"/><path d="m196.66 112.19v3.55l-17.06-9.91v-3.5z" fill="#8cc63f"/><path d="m211.66 132.45 84.62 48.92v3.86l-84.62-49.18z" fill="#00a99d"/><path d="m139.53 242.28c4.28 3 8.41 6.2 12.5 9.46l37.4-25.18-30.18-6.86-26.69 18c2.36 1.44 4.69 2.97 6.97 4.58z" fill="url(#a)"/><path d="m176.64 104.19a5.3 5.3 0 0 0 -2.5 2.29v.08c-1.57 1.28-1.82 3.63-3.48 4.79 0 0-1.57 1.15-1.59 1.19s.15-2.15.14-2.13c-.54 1.48-1.07 3-1.54 4.48a.93.93 0 0 0 .24.11l-.17.09-.15.09a.51.51 0 0 1 -.3.34 1.19 1.19 0 0 0 1.66 1.4l5-2.47a14.08 14.08 0 0 0 2-.58c0-.53.08-1.05.13-1.58a4.43 4.43 0 0 0 .34-4.18l.09-.09v-.06a3.85 3.85 0 0 0 1.59-2.51c.06-.72-.66-1.63-1.46-1.26z" fill="#f7931e"/><path d="m161.68 215v4.57s9.65-3.58 11.51-2c2.78 2.38-5.16 7.15-13.3 8.74a9.62 9.62 0 0 1 -4.81.14c-2.41-.84-1.39-4.48-1.4-6.35s-.1-3.93-.14-5.9" fill="#56403d"/><path d="m175.78 221.33v4.57s9.65-3.58 11.51-2c2.78 2.38-5.16 7.15-13.3 8.74a9.62 9.62 0 0 1 -4.81.14c-2.41-.84-1.39-4.48-1.4-6.35s-.1-3.93-.14-5.9" fill="#56403d"/><path d="m176 140.73s9.13 61.54 8.14 75.84c0 0-2.38 9.53-23 6.35 0 0-1.79-7.15-1-19.26s3-62.93 3-62.93z" fill="#68e1fd"/><path d="m170.91 213.46-3.11-73.46-13.86-1.29s-4 19.06-2.78 28.19-1.39 21.24-2 27.6c-.53 5.7-.75 15.55 1.22 20 6.68 1.89 13.89 1.25 20.53-1.04z" fill="#68e1fd"/><path d="m170.22 109s5.76 3.57 6.35 6.55c0 0-4 8.78-3.77 9.13 4.57 6-9.13-3.77-9.13-3.77s2.78-8.37 6.55-11.91z" fill="#6de2fc"/><path d="m183.32 111.15c.48 4-4.6 9.51-6.74 10.58-2.93 1.46-4.07-10.72-17-10.67-.83 0-5-1.78-7.21 3.71s0 21.23 1.46 24c1.29 2.42 9.88 8.24 22.15 2l.18-5.67s7.24-.16 11.07-5.48c3.57-5 5.7-12.42 5.36-16.08-2.84-1.27-6.42-3.33-9.27-2.39z" fill="#6de2fc"/><path d="m170.22 109s5.76 3.57 6.35 6.55c0 0-4 8.78-3.77 9.13 4.57 6-9.13-3.77-9.13-3.77s2.78-8.37 6.55-11.91z" fill="#8787d1"/><path d="m179.6 90.65 13.65 6.6-2.58 21.44-14.62-6.38" fill="#68e1fd"/><path d="m193.74 106.3a1.22 1.22 0 0 0 -1.63-.87 1.37 1.37 0 0 0 -.49-.77 1.23 1.23 0 0 0 -1.39-.06 1.42 1.42 0 0 0 -.36.29l-.07-.09a1.29 1.29 0 0 0 -1.4-.38 1.21 1.21 0 0 0 -.38.28 19.36 19.36 0 0 0 -.54-2.07c-.2-.68-.54-1.94-1.38-2.09-.55-.1-.8.3-.91.77a1.49 1.49 0 0 0 -.06 1 11 11 0 0 0 .2 1.37c.07.65.14 1.29.2 1.94a.43.43 0 0 0 -.3.12 2.35 2.35 0 0 0 -.83 2.65 20.22 20.22 0 0 0 1.51 3.91.44.44 0 0 0 .62.2l.06.24a.47.47 0 0 0 .93 0v-.09a.45.45 0 0 0 .16.08v.52c0 .48.77.48.91.08v.38c.06.53.9.48.93 0v-.43a.54.54 0 0 0 .4-.21.52.52 0 0 0 .33.19.44.44 0 0 0 .46.06v.12a.53.53 0 0 0 .62.35v.16c0 .6 1 .68.94.08q0-1.81-.1-3.62a.45.45 0 0 0 .14-.1c1.06-1.02 1.9-2.64 1.43-4.01zm-5.05-.91a.31.31 0 0 1 .26 0 .53.53 0 0 0 -.06.12h-.28z" fill="#f7931e"/><path d="m166.45 96.56c0 .13.8 8.18-1 10s-6.59 1-7.78-.9-2.65-4.49-1.38-7.5 9.94-3.58 10.16-1.6z" fill="#f7931e"/><path d="m163.87 101.8a.8.8 0 0 0 -.14-.86 3.89 3.89 0 0 0 -2.18-1.35 1.63 1.63 0 0 0 -1.91 1c-.55 1.83 2.41 2.36 3.62 2.52a.81.81 0 0 0 .8-.8.72.72 0 0 0 -.19-.51z" fill="#ffe8e6"/><path d="m188.26 104.27a4.53 4.53 0 0 0 -.62 2.95c.05.4.67.28.62-.12a3.82 3.82 0 0 1 .52-2.47c.22-.36-.31-.71-.52-.36z" fill="#42210b"/><path d="m160.21 217.11a122.8 122.8 0 0 1 -2.08-13.94 49.63 49.63 0 0 1 0-6.88 67 67 0 0 1 1-7 51 51 0 0 0 .57-12.63c-.32-4.33-1-8.62-1.4-12.95a46.6 46.6 0 0 1 .47-14.6c.14-.62-.82-.89-1-.26-1.92 8.63-.07 17.37.74 26a51.89 51.89 0 0 1 -.25 13.42c-.36 2.17-.81 4.33-1 6.52a45.76 45.76 0 0 0 -.16 7.06 114.26 114.26 0 0 0 2.2 15.54c.07.61 1.03.35.91-.28z" fill="#fff"/><path d="m183.32 111.15c.48 4-4.6 9.51-6.74 10.58-2.93 1.46-4.07-10.72-17-10.67-.83 0-5-1.78-7.21 3.71s0 21.23 1.46 24c1.29 2.42 9.88 8.24 22.15 2l.18-5.67s7.24-.16 11.07-5.48c3.57-5 5.7-12.42 5.36-16.08-2.84-1.27-6.42-3.33-9.27-2.39z" fill="#8787d1"/><path d="m182.31 133.7a15.87 15.87 0 0 1 -18.59-6.17c-.26-.39-.89 0-.63.37a16.6 16.6 0 0 0 19.41 6.51c.45-.16.26-.87-.19-.71z" fill="#fff"/><path d="m175.07 120.37a11.8 11.8 0 0 0 -2.85-4c-1.4-1.28-3.14-2.09-4.6-3.29-.29-.24-.72.18-.42.42 1.38 1.13 3 1.92 4.37 3.08a11.36 11.36 0 0 1 3 4.12c.14.3.65.02.5-.33z" fill="#fff"/><path d="m166.63 97.69-2.57 1.31s2 7.54 2.58 9.53-1.79 4.76-9.53 5-7.35-11.51-5.56-15.88 7.15-6.35 11.51-5.16a4.5 4.5 0 0 1 3.57 5.2z" fill="#b24d16"/></svg>