<svg enable-background="new 0 0 400 300" viewBox="0 0 400 300" xmlns="http://www.w3.org/2000/svg"><path d="m114.7 69.8h7c17.8 0 32.3 14.5 32.3 32.3v24.1h-71.6v-24.1c0-17.8 14.5-32.3 32.3-32.3z" fill="#725858"/><path d="m154.1 127.2h-71.7c-.6 0-1-.4-1-1v-24.1c0-18.4 14.9-33.3 33.3-33.3h7c18.4 0 33.3 14.9 33.3 33.3v24.1c.1.5-.4 1-.9 1zm-70.7-2h69.7v-23.1c0-17.3-14-31.3-31.3-31.3h-7c-17.3 0-31.3 14-31.3 31.3z" fill="#093f68"/><path d="m182.2 159.5c.3-.1 4.9-8.7 4.9-8.7s-.2-5.4-.2-8.1 2-3.1 2.6-1.8.9 5.1 1 5.1 3.1-8.6 3.9-9 8.7 3.7 9.1 6.4c.2 1.3-1.1 5.6-2.7 9.7-.4 1.1-4.4 3.6-4.4 3.6s-4.6 6.1-5.9 7.5z" fill="#ffc9b0"/><path d="m190.6 165.3c-.2 0-.3 0-.5-.1l-8.4-4.9c-.5-.3-.6-.9-.4-1.4.1-.1.1-.2.2-.2.4-.6 2.6-4.5 4.6-8.2 0-1.1-.2-5.5-.2-7.8s1.2-3.2 2.2-3.4 2 .3 2.4 1.3c.2.6.4 1.2.5 1.8 2-5.2 2.5-5.9 3.1-6.2.3-.2.9-.4 3.7 1 1.1.6 6.4 3.4 6.8 6.2.3 1.8-1.6 7.2-2.7 10.2-.5 1.3-3.3 3.2-4.7 4-.7 1-4.6 6.1-5.8 7.5-.3.1-.5.2-.8.2zm-7-6.2 6.8 3.9c1.7-2 5.3-6.8 5.3-6.9.1-.1.2-.2.3-.2 1.5-.8 2.8-1.9 4-3.1 2-5.2 2.7-8.5 2.6-9.2-.1-.6-1.1-1.8-3.6-3.4-1.3-.8-2.6-1.5-4.1-2.1-.7 1.2-2.1 5-2.7 6.5-.9 2.4-.9 2.5-1.7 2.5s-.9-.6-1.1-1.9c-.1-1.3-.4-2.5-.8-3.8 0-.1-.1-.1-.1-.1-.2 0-.6.5-.6 1.5 0 2.6.2 8 .2 8 0 .2 0 .3-.1.5-2.4 4.4-3.7 6.7-4.4 7.8z" fill="#093f68"/><path d="m193 153.2c-.5 0-1-.4-1-.9 0-2-.7-4-2.1-5.5-.4-.4-.3-1 .1-1.4.4-.3.9-.4 1.3 0 1.7 1.9 2.6 4.3 2.7 6.8 0 .5-.4 1-1 1 .1 0 .1 0 0 0z" fill="#093f68"/><path d="m181.6 156.4s-3.8 11.7-14.6 15.1c-5.2 1.7-14.3-5.4-19-9.7-5.4-4.9-12.4-7.6-19.6-7.5-3.9.1-8.8-.3-14.3-.4-9.7-.2-17.6 7.6-17.8 17.2v.3 40.2h45.2l.1-26.4v-6.9s12.5 18 31.4 7.7c15.1-8.2 19.2-21.5 20.6-23.4z" fill="#68e1fd"/><path d="m141.5 212.6h-45.2c-.6 0-1-.4-1-1v-40.2c0-10.2 8.3-18.5 18.5-18.5h.3c2.4 0 4.7.1 6.8.2 2.7.1 5.3.2 7.5.2 7.5-.1 14.8 2.7 20.3 7.8 7.8 7.1 14.6 10.6 18.1 9.5 10.2-3.2 13.9-14.4 13.9-14.5.1-.3.3-.5.6-.6s.6-.1.8 0l11.9 6.3c.5.3.7.9.4 1.3 0 0 0 .1-.1.1-.3.5-.6 1.1-.8 1.6-4.1 9.4-11.1 17.2-20.1 22.1-15.2 8.3-26.6-1.2-30.8-5.8l-.1 30.5c0 .6-.4 1-1 1zm-44.2-2h43.2l.1-32.3c0-.6.5-1 1-1 .3 0 .6.2.8.4.5.7 12.2 17.1 30.1 7.4 12.3-6.7 17.2-16.9 19.2-21.2.2-.3.3-.6.4-.9l-9.9-5.2c-1.3 3.1-5.6 11.7-14.8 14.7-5.8 1.9-15-5.4-20-9.9-5.2-4.7-12-7.3-19-7.3-2.2 0-4.8-.1-7.6-.2-2.2-.1-4.4-.2-6.8-.2-4.4-.1-8.7 1.6-11.8 4.7-3.2 3.1-5 7.4-5 11.8z" fill="#093f68"/><path d="m112.6 149.9h10.2v5.9c0 2.4-1.9 4.3-4.3 4.3h-1.5c-2.4 0-4.3-1.9-4.3-4.3z" fill="#ffc9b0"/><path d="m118.5 161.1h-1.5c-3 0-5.3-2.4-5.3-5.4v-5.9c0-.6.4-1 1-1h10.2c.6 0 1 .4 1 1v5.9c0 3-2.4 5.4-5.4 5.4zm-4.9-10.2v4.9c0 1.8 1.5 3.3 3.3 3.4h1.5c1.9 0 3.3-1.5 3.3-3.4v-4.9z" fill="#093f68"/><ellipse cx="88.5" cy="123.3" fill="#ffc9b0" rx="9.9" ry="8.6"/><path d="m88.5 132.9c-6 0-10.9-4.3-10.9-9.6s4.9-9.6 10.9-9.6 10.9 4.3 10.9 9.6-4.9 9.6-10.9 9.6zm0-17.2c-4.9 0-8.9 3.4-8.9 7.6s4 7.6 8.9 7.6 8.9-3.4 8.9-7.6-4-7.6-8.9-7.6z" fill="#093f68"/><ellipse cx="146.4" cy="123.3" fill="#ffc9b0" rx="9.9" ry="8.6"/><path d="m146.4 132.9c-6 0-10.9-4.3-10.9-9.6s4.9-9.6 10.9-9.6 10.9 4.3 10.9 9.6-4.8 9.6-10.9 9.6zm0-17.2c-4.9 0-8.9 3.4-8.9 7.6s4 7.6 8.9 7.6 8.9-3.4 8.9-7.6-3.9-7.6-8.9-7.6z" fill="#093f68"/><path d="m117.7 151.2c-16.6 0-30-13.4-30-30v-27.7s16.1-7.3 32.4-7.3c9.7-.1 19.2 2.5 27.5 7.3v27.8c0 16.5-13.3 29.9-29.9 29.9z" fill="#ffc9b0"/><g fill="#093f68"><path d="m117.7 151.2c-17.1 0-31-12.9-31-30v-27.7c0-.4.2-.7.6-.9.7-.3 16.5-7.4 32.8-7.4h.1c9.8-.1 19.5 2.5 28 7.5.3.2.4.5.4.8v27.8c.1 17-13.8 29.9-30.9 29.9zm-29-57.1v27.1c.7 16 14.3 28.4 30.3 27.7 15-.7 27-12.7 27.7-27.7v-27.2c-8.1-4.6-17.2-6.9-26.5-6.9-14.2.1-28.4 5.7-31.5 7z"/><circle cx="103.8" cy="116.9" r="2.8"/><circle cx="132.5" cy="116.9" r="2.8"/><path d="m117.6 127.2c-.9 0-1.8-.1-2.7-.2-.6-.1-.9-.6-.8-1.2s.6-.9 1.2-.8c1.3.2 2.7.2 4 .1.1-.9-1-3.7-2.3-6.4-.3-.5-.1-1.1.4-1.4s1.1-.1 1.4.4c1 1.9 3.2 6.4 2.3 8.3-.2.5-.6.8-1.1.9-.9.2-1.6.3-2.4.3z"/><path d="m109.5 109.4h-13.2c-1.1 0-2-.9-2-2s.9-2 2-2h13.2c1.1 0 2 .9 2 2s-.9 2-2 2z"/><path d="m128.4 109.7c-1.1 0-2-.8-2.1-1.9s.8-2 1.9-2.1l13.2-.7c1.1-.1 2 .8 2.1 1.9s-.8 2-1.9 2.1z"/></g><path d="m122.8 131.5-10.2-1.9s-1.4 10.9 2.4 13.8 6.6-1 7.8-11.9z" fill="#fff"/><path d="m117.3 145.3c-1.1 0-2.1-.4-2.9-1.1-4.2-3.1-3-13.5-2.8-14.7 0-.3.2-.5.4-.7s.5-.2.8-.2l10.2 1.9c.5.1.9.6.8 1.1-.9 7.9-2.6 12.2-5.1 13.4-.5.2-.9.3-1.4.3zm-3.8-14.5c-.3 3.4-.3 9.9 2.1 11.8 1.3 1 2 .7 2.3.6.8-.4 2.8-2.1 3.8-10.8z" fill="#093f68"/><path d="m201.6 127.6c0 3.7 1.8 8.7 7.7 9.5 2.4.4 4.8 0 7-1.1l-.2 18-19-.2c1.2-2.1 1.6-4.6 1.2-7-.7-5.9-5.6-7.8-9.3-7.9-4.2 0-6.4 1.1-8.8 4.4-2.9 4-.8 10.3-.8 10.3l-18.4-.1.6-55.1 55.1.6-.2 19.4s-6.2-2.2-10.3.6c-3.4 2.2-4.5 4.3-4.6 8.6z" fill="#ffbc0e"/><path d="m216.1 155-19-.2c-.6 0-1-.5-1-1 0-.2.1-.4.2-.5 1-1.9 1.4-4.2 1.1-6.3-.8-6.6-7.1-7-8.3-7-3.9-.1-5.8.9-7.9 4-2.5 3.6-.7 9.3-.7 9.4.1.3 0 .6-.1.9-.2.3-.5.4-.8.4l-18.4-.1c-.3 0-.5-.1-.7-.3s-.3-.4-.3-.7l.6-55.1c0-.3.1-.5.3-.7s.4-.3.7-.3l55.1.6c.6 0 1 .4 1 1l-.2 19.4c0 .3-.2.6-.4.8-.3.2-.6.2-.9.1-.1 0-5.8-1.9-9.4.5-3.1 2.1-4.1 4-4.1 7.9 0 1.2.3 7.6 6.8 8.5 2.2.4 4.4.1 6.3-.9.5-.3 1.1-.2 1.4.3.1.2.2.4.2.5l-.2 18c0 .3-.1.5-.3.7-.4 0-.7.1-1 .1zm-17.4-2.2 16.4.2.1-15.5c-2 .7-4.1.8-6.1.5-6.4-.9-8.6-6.2-8.5-10.5 0-4.5 1.4-7 5-9.5 3.3-2.2 7.7-1.6 9.9-1.1l.2-17.1-53.1-.5-.5 53.1 16.1.2c-.5-2.2-1-6.6 1.3-9.8 2.6-3.6 5-4.9 9.6-4.8 4.3 0 9.6 2.4 10.3 8.8.2 2 0 4.1-.7 6z" fill="#093f68"/><path d="m149.5 162.1c1.9-.5 2.8-5.9 3.9-7.4 2.3-3 6.4-5 10-5.9.7-.3 1.5-.2 2.1.1-.3 1-1.1 1.7-2 2.1-1.5.9-3.1 1.8-4.7 2.5l8.9-2c1.1-.3 2.3-.4 3.5-.3.3.1.6.2.9.5.1.2.2.4.2.6.3 1.3 0 2.7-.9 3.7-.7.7-1.6 1.3-2.5 1.8-1.9 1-4.6 1.9-6.1 3.6-1.3 1.5-1.8 3.6-3.2 5.1z" fill="#ffc9b0"/><path d="m159.6 167.3c-.1 0-.3 0-.4-.1l-10.1-4.2c-.4-.2-.6-.6-.6-1s.3-.8.7-.9c.7-.2 1.5-2.6 2-3.9.3-1.1.8-2.2 1.4-3.2 2.5-3.3 7.1-5.4 10.5-6.3 1-.4 2.1-.3 2.9.2.3.2.5.6.4 1-.2.8-.6 1.5-1.3 2l2.3-.5c1.3-.4 2.6-.5 3.9-.3.6.1 1.1.4 1.4.8.2.3.3.6.4.9.4 1.6 0 3.3-1.1 4.6-.8.8-1.8 1.5-2.8 2-.6.3-1.2.6-1.8.9-1.5.6-2.9 1.4-4.1 2.5-.6.7-1 1.5-1.4 2.3-.5 1-1.1 2-1.8 2.8.1.3-.2.4-.5.4zm-8.2-5.5 7.9 3.4c.4-.6.7-1.2 1.1-1.9.4-1 1-1.9 1.7-2.7 1.4-1.3 3-2.3 4.7-3 .6-.3 1.2-.5 1.7-.8.8-.4 1.6-.9 2.2-1.6.7-.8.9-1.8.7-2.8 0-.1 0-.1-.1-.2-.1 0-.2-.1-.3-.1-1-.1-2.1 0-3.1.3l-8.9 2c-.5.1-1.1-.2-1.2-.7s.1-1 .6-1.2c1.6-.7 3.1-1.6 4.6-2.5.2-.1.5-.3.7-.4h-.1c-3.1.8-7.2 2.7-9.4 5.6-.5.8-.8 1.7-1.1 2.6-.4 1.4-1 2.7-1.7 4z" fill="#093f68"/><path d="m97.1 176.3s3.9 28.1 26.5 24.7 36-35.2 36-35.2l-9.6-8s-18.8 28.9-26.6 25.3-9-21.4-15.9-21.9-12.8 5.9-10.4 15.1z" fill="#68e1fd"/><path d="m119.9 202.2c-4.3.1-8.6-1.3-12.1-3.9-9.3-7-11.5-20.7-11.7-21.8-1.2-4.7-.4-9.1 2.2-12.3 2.3-2.7 5.7-4.2 9.3-3.9 4.1.3 6.2 5.3 8.5 10.6 2.1 4.8 4.2 9.8 7.7 11.4 5.1 2.4 18.3-14 25.3-24.9.2-.2.4-.4.7-.4.3-.1.6 0 .8.2l9.6 7.9c.3.3.5.8.3 1.2-2.6 5.8-5.8 11.4-9.6 16.5-8.2 11.2-17.6 17.8-27.2 19.3-1.2 0-2.5.1-3.8.1zm-13.1-40c-2.7 0-5.2 1.2-6.9 3.3-2.2 2.7-2.9 6.4-1.8 10.5v.1c0 .1 2.1 14 10.9 20.6 4 3 8.9 4.1 14.5 3.2 20-3 32.8-29.3 35-33.9l-8.1-6.8c-3.4 5.2-17.2 25.1-25.4 25.1-.6 0-1.3-.1-1.9-.4-4.2-1.9-6.5-7.2-8.7-12.4-2-4.7-3.9-9.2-6.8-9.4-.3.1-.6.1-.8.1z" fill="#093f68"/><path d="m248.5 175.1v55.1h-55.1v-55.1h19.4s-2.1 6.2.7 10.3c2.3 3.4 4.5 4.5 8.7 4.5 3.8 0 8.6-1.9 9.4-7.8.4-2.4 0-4.9-1.1-7z" fill="#f56132"/><path d="m248.5 231.2h-55.1c-.6 0-1-.4-1-1v-55.1c0-.6.4-1 1-1h19.4c.3 0 .6.2.8.4.2.3.2.6.1.9 0 .1-1.9 5.8.6 9.4 2.1 3.1 4 4 7.9 4 1.3 0 7.6-.3 8.4-6.9.3-2.2 0-4.4-1-6.3-.3-.5-.2-1.1.3-1.4.2-.1.3-.2.5-.2h18.1c.6 0 1 .4 1 1v55.1c0 .6-.4 1.1-1 1.1zm-54.1-2h53.1v-53.1h-15.5c.7 2 .9 4.1.6 6.1-.8 6.4-6.1 8.6-10.4 8.6-4.5 0-7-1.3-9.5-4.9-2.3-3.3-1.7-7.7-1.2-9.9h-17.1z" fill="#093f68"/><path d="m303.6 120v55h-55v-18.4c-2 .8-4.1 1-6.2.7-5.9-.8-7.8-5.6-7.8-9.4 0-4.2 1.1-6.4 4.5-8.7 3.2-2.2 7.6-1.4 9.5-.9v-18.3z" fill="#70cc40"/><path d="m303.6 176.1h-55c-.6 0-1-.4-1-1v-17.1c-1.7.5-3.5.6-5.3.3-6.4-.8-8.6-6.1-8.6-10.4 0-4.5 1.3-7 4.9-9.5 2.9-2 6.7-1.8 9-1.4v-17c0-.6.4-1 1-1h55c.6 0 1 .4 1 1v55c0 .6-.4 1-1 1.1zm-54-2h53v-53.1h-53v17.2c0 .6-.4 1-1 1-.1 0-.2 0-.3 0-1.3-.3-5.7-1.2-8.6.8-3.1 2.2-4.1 4-4.1 7.9 0 1.3.3 7.6 6.9 8.4 1.9.3 3.9.1 5.7-.7.5-.2 1.1 0 1.3.5.1.1.1.3.1.4z" fill="#093f68"/><path d="m303.6 175.1v55.1h-55.1v-19c-2.1 1.1-4.6 1.5-7 1.1-5.9-.8-7.8-5.7-7.8-9.4 0-4.2 1.1-6.4 4.5-8.7 4.1-2.8 10.3-.7 10.3-.7v-18.4h18.5s-2.1-6.2.7-10.3c2.3-3.4 4.5-4.5 8.7-4.5 3.8 0 8.6 1.9 9.4 7.8.4 2.4 0 4.9-1.1 7z" fill="#68e1fd"/><path d="m303.6 231.2h-55.1c-.6 0-1-.4-1-1v-17.4c-2 .7-4.1.9-6.1.6-6.4-.8-8.7-6.1-8.7-10.4 0-4.5 1.3-7 4.9-9.5 3.3-2.3 7.7-1.7 9.9-1.2v-17.2c0-.6.4-1 1-1h17.2c-.5-2.2-1.1-6.6 1.2-9.9 2.5-3.6 5-4.9 9.5-4.9 4.3 0 9.6 2.3 10.4 8.6.3 2.1.1 4.2-.6 6.1h17.4c.6 0 1 .4 1 1v55.1c0 .7-.5 1.1-1 1.1zm-54.1-2h53.1v-53.1h-17.9c-.4 0-.7-.2-.9-.5s-.2-.7 0-1c1-1.9 1.4-4.2 1-6.3-.8-6.6-7.1-6.9-8.4-6.9-3.9 0-5.7.9-7.9 4.1-2.5 3.6-.6 9.3-.6 9.4.1.3.1.6-.1.9s-.5.4-.8.4h-17.5v17.5c0 .3-.2.6-.4.8-.3.2-.6.2-.9.1-.1 0-5.8-1.9-9.4.6-3.1 2.1-4.1 4-4.1 7.9 0 1.2.3 7.6 6.9 8.4 2.2.3 4.4 0 6.3-1 .5-.3 1.1-.2 1.4.3.1.2.2.3.2.5z" fill="#093f68"/><path d="m96.3 211.6h45.3v18.6h-45.3z" fill="#093f68"/><path d="m141.6 231.2h-45.3c-.6 0-1-.4-1-1v-18.6c0-.6.4-1 1-1h45.3c.6 0 1 .4 1 1v18.6c0 .6-.4 1-1 1zm-44.3-2h43.3v-16.6h-43.3z" fill="#093f68"/><path d="m323.3 231.2h-246.6c-.6 0-1-.4-1-1s.4-1 1-1h246.5c.6 0 1 .4 1 1s-.4 1-.9 1z" fill="#093f68"/><path d="m229.5 86.5c-.6 0-1-.4-1-1 0-.3.1-.5.3-.7l7.7-8.3c.4-.4 1-.4 1.4-.1.4.4.4 1 .1 1.4l-7.7 8.3c-.2.3-.5.4-.8.4z" fill="#dfeaef"/><path d="m245.6 95h-12.2c-.6 0-1-.4-1-1s.4-1 1-1h12.2c.6 0 1 .4 1 1s-.5 1-1 1z" fill="#dfeaef"/><path d="m219.2 82.4h-.2c-.5-.1-.9-.6-.9-1.1l1.2-8.2c.1-.6.6-.9 1.1-.9s.9.6.9 1.1l-1.2 8.2c0 .5-.4.9-.9.9z" fill="#dfeaef"/></svg>